<mxfile host="app.diagrams.net" agent="Mozilla/5.0 (Macintosh; Intel Mac OS X 10_15_7) AppleWebKit/605.1.15 (KHTML, like Gecko) Version/18.1 Safari/605.1.15" version="24.8.2">
  <diagram name="Page-1" id="oXrBbCANG6QWnPNk3pTF">
    <mxGraphModel dx="1270" dy="849" grid="1" gridSize="10" guides="1" tooltips="1" connect="1" arrows="1" fold="1" page="1" pageScale="1" pageWidth="827" pageHeight="1169" math="0" shadow="0">
      <root>
        <mxCell id="0" />
        <mxCell id="1" parent="0" />
        <mxCell id="ZgPgJ_hQ9HkyY2FBq8H9-1" value="" style="shape=image;verticalLabelPosition=bottom;labelBackgroundColor=default;verticalAlign=top;aspect=fixed;imageAspect=0;image=data:image/svg+xml,PHN2ZyB4bWxuczp4bGluaz0iaHR0cDovL3d3dy53My5vcmcvMTk5OS94bGluayIgeG1sbnM9Imh0dHA6Ly93d3cudzMub3JnLzIwMDAvc3ZnIiBoZWlnaHQ9IjExODAiIHdpZHRoPSIxNDkzIiB2ZXJzaW9uPSIxLjEiIHZpZXdCb3g9IjAgMCAxNDkzIDExODAiPjxkZWZzLz48Zz48Zz48cmVjdCBmaWxsLW9wYWNpdHk9IjAuMiIgdHJhbnNmb3JtPSJtYXRyaXgoMSAwIDAgMSAtMTY2IC05NTEpIiBoZWlnaHQ9IjE1IiB3aWR0aD0iNTg4LjgiIHk9Ijk2OCIgeD0iMTgzIiBzdHJva2U9Im5vbmUiIGZpbGw9IiNDMEMwQzAiLz48L2c+PGc+PHJlY3QgZmlsbC1vcGFjaXR5PSIwLjIiIHRyYW5zZm9ybT0ibWF0cml4KDEgMCAwIDEgLTE2NiAtOTUxKSIgaGVpZ2h0PSI4MjYiIHdpZHRoPSIxNDcyIiB5PSI5ODIiIHg9IjE4MyIgc3Ryb2tlPSJub25lIiBmaWxsPSIjQzBDMEMwIi8+PC9nPjxnPjxyZWN0IHRyYW5zZm9ybT0ibWF0cml4KDEgMCAwIDEgLTE2NiAtOTUxKSIgaGVpZ2h0PSI4MjUiIHdpZHRoPSIxNDcyIiB5PSI5NzYiIHg9IjE3NiIgc3Ryb2tlPSJub25lIiBmaWxsPSIjZmZmZmZmIi8+PC9nPjxnPjxwYXRoIHN0cm9rZS1kYXNoYXJyYXk9IiIgc3Ryb2tlLW1pdGVybGltaXQ9IjEwIiBkPSJNIDEwIDI1IEwgMTQ4MiAyNSBMIDE0ODIgODUwIEwgMTAgODUwIEwgMTAgMjUgWiBaIiBwYWludC1vcmRlcj0iZmlsbCBzdHJva2UgbWFya2VycyIgc3Ryb2tlPSIjMDAwMDAwIiBmaWxsPSJub25lIi8+PC9nPjxnPjxyZWN0IHRyYW5zZm9ybT0ibWF0cml4KDEgMCAwIDEgLTE2NiAtOTUxKSIgaGVpZ2h0PSIxNSIgd2lkdGg9IjU4OC44IiB5PSI5NjEiIHg9IjE3NiIgc3Ryb2tlPSJub25lIiBmaWxsPSIjZmZmZmZmIi8+PC9nPjxnPjxwYXRoIHN0cm9rZS1kYXNoYXJyYXk9IiIgc3Ryb2tlLW1pdGVybGltaXQ9IjEwIiBkPSJNIDEwIDEwIEwgNTk4LjggMTAgTCA1OTguOCAyNSBMIDEwIDI1IEwgMTAgMTAgWiBaIiBwYWludC1vcmRlcj0iZmlsbCBzdHJva2UgbWFya2VycyIgc3Ryb2tlPSIjMDAwMDAwIiBmaWxsPSJub25lIi8+PC9nPjxnPjxyZWN0IHRyYW5zZm9ybT0ibWF0cml4KDEgMCAwIDEgLTE2NiAtOTUxKSIgaGVpZ2h0PSI4MjYiIHdpZHRoPSIxNDcyIiB5PSI5NzUiIHg9IjE3NiIgc3Ryb2tlPSJub25lIiBmaWxsPSIjZmZmZmZmIi8+PC9nPjxnPjxwYXRoIHN0cm9rZS1kYXNoYXJyYXk9IiIgc3Ryb2tlLW1pdGVybGltaXQ9IjEwIiBkPSJNIDEwIDI0IEwgMTQ4MiAyNCBMIDE0ODIgODUwIEwgMTAgODUwIEwgMTAgMjQgWiBaIiBwYWludC1vcmRlcj0iZmlsbCBzdHJva2UgbWFya2VycyIgc3Ryb2tlPSIjMDAwMDAwIiBmaWxsPSJub25lIi8+PC9nPjxnPjxnPjxwYXRoIHN0cm9rZT0ibm9uZSIgZmlsbD0ibm9uZSIvPjx0ZXh0IHRyYW5zZm9ybT0ibWF0cml4KDEgMCAwIDEgLTE2NiAtOTUxKSIgdGV4dC1hbmNob3I9Im1pZGRsZSIgeT0iOTk3IiB4PSI5MTIuNSIgdGV4dC1kZWNvcmF0aW9uPSJ1bmRlZmluZWQiIGZvbnQtd2VpZ2h0PSJib2xkIiBmb250LXN0eWxlPSJub3JtYWwiIGZvbnQtc2l6ZT0iMjhweCIgZm9udC1mYW1pbHk9IkFyaWFsIiBzdHJva2U9Im5vbmUiIGZpbGw9IiMwMDAwMDAiPkRDQVQ8L3RleHQ+PC9nPjwvZz48Zz48cmVjdCBmaWxsLW9wYWNpdHk9IjAuMiIgdHJhbnNmb3JtPSJtYXRyaXgoMSAwIDAgMSAtMTY2IC05NTEpIiBoZWlnaHQ9IjE1IiB3aWR0aD0iNTg4LjgiIHk9IjE4MjQiIHg9IjE4MyIgc3Ryb2tlPSJub25lIiBmaWxsPSIjQzBDMEMwIi8+PC9nPjxnPjxyZWN0IGZpbGwtb3BhY2l0eT0iMC4yIiB0cmFuc2Zvcm09Im1hdHJpeCgxIDAgMCAxIC0xNjYgLTk1MSkiIGhlaWdodD0iMjkwIiB3aWR0aD0iMTQ3MiIgeT0iMTgzOCIgeD0iMTgzIiBzdHJva2U9Im5vbmUiIGZpbGw9IiNDMEMwQzAiLz48L2c+PGc+PHJlY3QgdHJhbnNmb3JtPSJtYXRyaXgoMSAwIDAgMSAtMTY2IC05NTEpIiBoZWlnaHQ9IjI4OSIgd2lkdGg9IjE0NzIiIHk9IjE4MzIiIHg9IjE3NiIgc3Ryb2tlPSJub25lIiBmaWxsPSIjRkZGRkZGIi8+PC9nPjxnPjxwYXRoIHN0cm9rZS1kYXNoYXJyYXk9IiIgc3Ryb2tlLW1pdGVybGltaXQ9IjEwIiBkPSJNIDEwIDg4MSBMIDE0ODIgODgxIEwgMTQ4MiAxMTcwIEwgMTAgMTE3MCBMIDEwIDg4MSBaIFoiIHBhaW50LW9yZGVyPSJmaWxsIHN0cm9rZSBtYXJrZXJzIiBzdHJva2U9IiMwMDQ0Q0MiIGZpbGw9Im5vbmUiLz48L2c+PGc+PHJlY3QgdHJhbnNmb3JtPSJtYXRyaXgoMSAwIDAgMSAtMTY2IC05NTEpIiBoZWlnaHQ9IjE1IiB3aWR0aD0iNTg4LjgiIHk9IjE4MTciIHg9IjE3NiIgc3Ryb2tlPSJub25lIiBmaWxsPSIjRkZGRkZGIi8+PC9nPjxnPjxwYXRoIHN0cm9rZS1kYXNoYXJyYXk9IiIgc3Ryb2tlLW1pdGVybGltaXQ9IjEwIiBkPSJNIDEwIDg2NiBMIDU5OC44IDg2NiBMIDU5OC44IDg4MSBMIDEwIDg4MSBMIDEwIDg2NiBaIFoiIHBhaW50LW9yZGVyPSJmaWxsIHN0cm9rZSBtYXJrZXJzIiBzdHJva2U9IiMwMDQ0Q0MiIGZpbGw9Im5vbmUiLz48L2c+PGc+PHJlY3QgdHJhbnNmb3JtPSJtYXRyaXgoMSAwIDAgMSAtMTY2IC05NTEpIiBoZWlnaHQ9IjI5MCIgd2lkdGg9IjE0NzIiIHk9IjE4MzEiIHg9IjE3NiIgc3Ryb2tlPSJub25lIiBmaWxsPSIjRkZGRkZGIi8+PC9nPjxnPjxwYXRoIHN0cm9rZS1kYXNoYXJyYXk9IiIgc3Ryb2tlLW1pdGVybGltaXQ9IjEwIiBkPSJNIDEwIDg4MCBMIDE0ODIgODgwIEwgMTQ4MiAxMTcwIEwgMTAgMTE3MCBMIDEwIDg4MCBaIFoiIHBhaW50LW9yZGVyPSJmaWxsIHN0cm9rZSBtYXJrZXJzIiBzdHJva2U9IiMwMDQ0Q0MiIGZpbGw9Im5vbmUiLz48L2c+PGc+PGc+PHBhdGggc3Ryb2tlPSJub25lIiBmaWxsPSJub25lIi8+PHRleHQgdHJhbnNmb3JtPSJtYXRyaXgoMSAwIDAgMSAtMTY2IC05NTEpIiB0ZXh0LWFuY2hvcj0ibWlkZGxlIiB5PSIxODUzIiB4PSI5MTIuNSIgdGV4dC1kZWNvcmF0aW9uPSJ1bmRlZmluZWQiIGZvbnQtd2VpZ2h0PSJib2xkIiBmb250LXN0eWxlPSJub3JtYWwiIGZvbnQtc2l6ZT0iMjhweCIgZm9udC1mYW1pbHk9IkFyaWFsIiBzdHJva2U9Im5vbmUiIGZpbGw9IiMwMDAwMDAiPkRQUk9EPC90ZXh0PjwvZz48L2c+PGc+PHJlY3QgZmlsbC1vcGFjaXR5PSIwLjIiIHRyYW5zZm9ybT0ibWF0cml4KDEgMCAwIDEgLTE2NiAtOTUxKSIgaGVpZ2h0PSIyMzQiIHdpZHRoPSIyODEuNzAzMTI1IiB5PSIxODgwIiB4PSIxMzUxIiBzdHJva2U9Im5vbmUiIGZpbGw9IiNDMEMwQzAiLz48L2c+PGc+PHJlY3QgdHJhbnNmb3JtPSJtYXRyaXgoMSAwIDAgMSAtMTY2IC05NTEpIiBoZWlnaHQ9IjIzNCIgd2lkdGg9IjI4MS43MDMxMjUiIHk9IjE4NzMiIHg9IjEzNDQiIHN0cm9rZT0ibm9uZSIgZmlsbD0iI2ZmZmZmZiIvPjwvZz48Zz48cGF0aCBzdHJva2UtZGFzaGFycmF5PSIiIHN0cm9rZS1taXRlcmxpbWl0PSIxMCIgZD0iTSAxMTc4IDkyMiBMIDE0NTkuNzAzMTI1IDkyMiBMIDE0NTkuNzAzMTI1IDExNTYgTCAxMTc4IDExNTYgTCAxMTc4IDkyMiBaIFoiIHBhaW50LW9yZGVyPSJmaWxsIHN0cm9rZSBtYXJrZXJzIiBzdHJva2U9IiMwMDQ0Q0MiIGZpbGw9Im5vbmUiLz48L2c+PGc+PHBhdGggc3Ryb2tlLWRhc2hhcnJheT0iIiBzdHJva2UtbWl0ZXJsaW1pdD0iMTAiIGQ9Ik0gMTE3OCA5NTAgTCAxNDU5LjcwMzEyNSA5NTAiIHBhaW50LW9yZGVyPSJmaWxsIHN0cm9rZSBtYXJrZXJzIiBzdHJva2U9IiMwMDQ0Q0MiIGZpbGw9Im5vbmUiLz48L2c+PGc+PGc+PHBhdGggc3Ryb2tlPSJub25lIiBmaWxsPSJub25lIi8+PHRleHQgdHJhbnNmb3JtPSJtYXRyaXgoMSAwIDAgMSAtMTY2IC05NTEpIiB0ZXh0LWFuY2hvcj0ibWlkZGxlIiB5PSIxODg4IiB4PSIxNDg1LjM1MTU2MjUiIHRleHQtZGVjb3JhdGlvbj0idW5kZWZpbmVkIiBmb250LXdlaWdodD0iYm9sZCIgZm9udC1zdHlsZT0ibm9ybWFsIiBmb250LXNpemU9IjE2cHgiIGZvbnQtZmFtaWx5PSJBcmlhbCIgc3Ryb2tlPSJub25lIiBmaWxsPSIjMDA1NUZGIj5EYXRhUHJvZHVjdDwvdGV4dD48L2c+PC9nPjxnPjxnPjxwYXRoIHN0cm9rZT0ibm9uZSIgZmlsbD0ibm9uZSIvPjx0ZXh0IHRyYW5zZm9ybT0ibWF0cml4KDEgMCAwIDEgLTE2NiAtOTUxKSIgdGV4dC1hbmNob3I9InN0YXJ0IiB5PSIxOTE0IiB4PSIxMzQ5IiB0ZXh0LWRlY29yYXRpb249InVuZGVmaW5lZCIgZm9udC13ZWlnaHQ9Im5vcm1hbCIgZm9udC1zdHlsZT0ibm9ybWFsIiBmb250LXNpemU9IjE2cHgiIGZvbnQtZmFtaWx5PSJBcmlhbCIgc3Ryb2tlPSJub25lIiBmaWxsPSIjMDA1NUZGIj4rcmRmczogbGFiZWw8L3RleHQ+PC9nPjwvZz48Zz48Zz48cGF0aCBzdHJva2U9Im5vbmUiIGZpbGw9Im5vbmUiLz48dGV4dCB0cmFuc2Zvcm09Im1hdHJpeCgxIDAgMCAxIC0xNjYgLTk1MSkiIHRleHQtYW5jaG9yPSJzdGFydCIgeT0iMTkzMiIgeD0iMTM0OSIgdGV4dC1kZWNvcmF0aW9uPSJ1bmRlZmluZWQiIGZvbnQtd2VpZ2h0PSJub3JtYWwiIGZvbnQtc3R5bGU9Im5vcm1hbCIgZm9udC1zaXplPSIxNnB4IiBmb250LWZhbWlseT0iQXJpYWwiIHN0cm9rZT0ibm9uZSIgZmlsbD0iIzAwNTVGRiI+K2Rwcm9kOiBkYXRhUHJvZHVjdE93bmVyPC90ZXh0PjwvZz48L2c+PGc+PGc+PHBhdGggc3Ryb2tlPSJub25lIiBmaWxsPSJub25lIi8+PHRleHQgdHJhbnNmb3JtPSJtYXRyaXgoMSAwIDAgMSAtMTY2IC05NTEpIiB0ZXh0LWFuY2hvcj0ic3RhcnQiIHk9IjE5NTAiIHg9IjEzNDkiIHRleHQtZGVjb3JhdGlvbj0idW5kZWZpbmVkIiBmb250LXdlaWdodD0ibm9ybWFsIiBmb250LXN0eWxlPSJub3JtYWwiIGZvbnQtc2l6ZT0iMTZweCIgZm9udC1mYW1pbHk9IkFyaWFsIiBzdHJva2U9Im5vbmUiIGZpbGw9IiMwMDU1RkYiPitkY3Q6IGRlc2NyaXB0aW9uPC90ZXh0PjwvZz48L2c+PGc+PGc+PHBhdGggc3Ryb2tlPSJub25lIiBmaWxsPSJub25lIi8+PHRleHQgdHJhbnNmb3JtPSJtYXRyaXgoMSAwIDAgMSAtMTY2IC05NTEpIiB0ZXh0LWFuY2hvcj0ic3RhcnQiIHk9IjE5NjgiIHg9IjEzNDkiIHRleHQtZGVjb3JhdGlvbj0idW5kZWZpbmVkIiBmb250LXdlaWdodD0ibm9ybWFsIiBmb250LXN0eWxlPSJub3JtYWwiIGZvbnQtc2l6ZT0iMTZweCIgZm9udC1mYW1pbHk9IkFyaWFsIiBzdHJva2U9Im5vbmUiIGZpbGw9IiMwMDU1RkYiPitkcHJvZDogZG9tYWluPC90ZXh0PjwvZz48L2c+PGc+PGc+PHBhdGggc3Ryb2tlPSJub25lIiBmaWxsPSJub25lIi8+PHRleHQgdHJhbnNmb3JtPSJtYXRyaXgoMSAwIDAgMSAtMTY2IC05NTEpIiB0ZXh0LWFuY2hvcj0ic3RhcnQiIHk9IjE5ODYiIHg9IjEzNDkiIHRleHQtZGVjb3JhdGlvbj0idW5kZWZpbmVkIiBmb250LXdlaWdodD0ibm9ybWFsIiBmb250LXN0eWxlPSJub3JtYWwiIGZvbnQtc2l6ZT0iMTZweCIgZm9udC1mYW1pbHk9IkFyaWFsIiBzdHJva2U9Im5vbmUiIGZpbGw9IiMwMDU1RkYiPitkcHJvZDogaW5wdXRQb3J0PC90ZXh0PjwvZz48L2c+PGc+PGc+PHBhdGggc3Ryb2tlPSJub25lIiBmaWxsPSJub25lIi8+PHRleHQgdHJhbnNmb3JtPSJtYXRyaXgoMSAwIDAgMSAtMTY2IC05NTEpIiB0ZXh0LWFuY2hvcj0ic3RhcnQiIHk9IjIwMDQiIHg9IjEzNDkiIHRleHQtZGVjb3JhdGlvbj0idW5kZWZpbmVkIiBmb250LXdlaWdodD0ibm9ybWFsIiBmb250LXN0eWxlPSJub3JtYWwiIGZvbnQtc2l6ZT0iMTZweCIgZm9udC1mYW1pbHk9IkFyaWFsIiBzdHJva2U9Im5vbmUiIGZpbGw9IiMwMDU1RkYiPitkcHJvZDpvdXRwdXRQb3J0PC90ZXh0PjwvZz48L2c+PGc+PGc+PHBhdGggc3Ryb2tlPSJub25lIiBmaWxsPSJub25lIi8+PHRleHQgdHJhbnNmb3JtPSJtYXRyaXgoMSAwIDAgMSAtMTY2IC05NTEpIiB0ZXh0LWFuY2hvcj0ic3RhcnQiIHk9IjIwMjIiIHg9IjEzNDkiIHRleHQtZGVjb3JhdGlvbj0idW5kZWZpbmVkIiBmb250LXdlaWdodD0ibm9ybWFsIiBmb250LXN0eWxlPSJub3JtYWwiIGZvbnQtc2l6ZT0iMTZweCIgZm9udC1mYW1pbHk9IkFyaWFsIiBzdHJva2U9Im5vbmUiIGZpbGw9IiMwMDU1RkYiPitkcHJvZDppbnB1dERhdGFzZXQ8L3RleHQ+PC9nPjwvZz48Zz48Zz48cGF0aCBzdHJva2U9Im5vbmUiIGZpbGw9Im5vbmUiLz48dGV4dCB0cmFuc2Zvcm09Im1hdHJpeCgxIDAgMCAxIC0xNjYgLTk1MSkiIHRleHQtYW5jaG9yPSJzdGFydCIgeT0iMjA0MCIgeD0iMTM0OSIgdGV4dC1kZWNvcmF0aW9uPSJ1bmRlZmluZWQiIGZvbnQtd2VpZ2h0PSJub3JtYWwiIGZvbnQtc3R5bGU9Im5vcm1hbCIgZm9udC1zaXplPSIxNnB4IiBmb250LWZhbWlseT0iQXJpYWwiIHN0cm9rZT0ibm9uZSIgZmlsbD0iIzAwNTVGRiI+K2Rwcm9kOm91dHB1dERhdGFzZXQ8L3RleHQ+PC9nPjwvZz48Zz48Zz48cGF0aCBzdHJva2U9Im5vbmUiIGZpbGw9Im5vbmUiLz48dGV4dCB0cmFuc2Zvcm09Im1hdHJpeCgxIDAgMCAxIC0xNjYgLTk1MSkiIHRleHQtYW5jaG9yPSJzdGFydCIgeT0iMjA1OCIgeD0iMTM0OSIgdGV4dC1kZWNvcmF0aW9uPSJ1bmRlZmluZWQiIGZvbnQtd2VpZ2h0PSJub3JtYWwiIGZvbnQtc3R5bGU9Im5vcm1hbCIgZm9udC1zaXplPSIxNnB4IiBmb250LWZhbWlseT0iQXJpYWwiIHN0cm9rZT0ibm9uZSIgZmlsbD0iIzAwNTVGRiI+K29kcmw6aGFzUG9saWN5PC90ZXh0PjwvZz48L2c+PGc+PGc+PHBhdGggc3Ryb2tlPSJub25lIiBmaWxsPSJub25lIi8+PHRleHQgdHJhbnNmb3JtPSJtYXRyaXgoMSAwIDAgMSAtMTY2IC05NTEpIiB0ZXh0LWFuY2hvcj0ic3RhcnQiIHk9IjIwNzYiIHg9IjEzNDkiIHRleHQtZGVjb3JhdGlvbj0idW5kZWZpbmVkIiBmb250LXdlaWdodD0ibm9ybWFsIiBmb250LXN0eWxlPSJub3JtYWwiIGZvbnQtc2l6ZT0iMTZweCIgZm9udC1mYW1pbHk9IkFyaWFsIiBzdHJva2U9Im5vbmUiIGZpbGw9IiMwMDU1RkYiPitkcHJvZDpsaWZlY3ljbGVTdGF0dXM8L3RleHQ+PC9nPjwvZz48Zz48Zz48cGF0aCBzdHJva2U9Im5vbmUiIGZpbGw9Im5vbmUiLz48dGV4dCB0cmFuc2Zvcm09Im1hdHJpeCgxIDAgMCAxIC0xNjYgLTk1MSkiIHRleHQtYW5jaG9yPSJzdGFydCIgeT0iMjA5NCIgeD0iMTM0OSIgdGV4dC1kZWNvcmF0aW9uPSJ1bmRlZmluZWQiIGZvbnQtd2VpZ2h0PSJub3JtYWwiIGZvbnQtc3R5bGU9Im5vcm1hbCIgZm9udC1zaXplPSIxNnB4IiBmb250LWZhbWlseT0iQXJpYWwiIHN0cm9rZT0ibm9uZSIgZmlsbD0iIzAwNTVGRiI+K2Rwcm9kOnB1cnBvc2U8L3RleHQ+PC9nPjwvZz48Zz48cmVjdCBmaWxsLW9wYWNpdHk9IjAuMiIgdHJhbnNmb3JtPSJtYXRyaXgoMSAwIDAgMSAtMTY2IC05NTEpIiBoZWlnaHQ9IjYzMCIgd2lkdGg9IjIxNiIgeT0iMTA2NCIgeD0iMTM5OSIgc3Ryb2tlPSJub25lIiBmaWxsPSIjQzBDMEMwIi8+PC9nPjxnPjxyZWN0IHRyYW5zZm9ybT0ibWF0cml4KDEgMCAwIDEgLTE2NiAtOTUxKSIgaGVpZ2h0PSI2MzAiIHdpZHRoPSIyMTYiIHk9IjEwNTciIHg9IjEzOTIiIHN0cm9rZT0ibm9uZSIgZmlsbD0iI2ZmZmZmZiIvPjwvZz48Zz48cGF0aCBzdHJva2UtZGFzaGFycmF5PSIiIHN0cm9rZS1taXRlcmxpbWl0PSIxMCIgZD0iTSAxMjI2IDEwNiBMIDE0NDIgMTA2IEwgMTQ0MiA3MzYgTCAxMjI2IDczNiBMIDEyMjYgMTA2IFogWiIgcGFpbnQtb3JkZXI9ImZpbGwgc3Ryb2tlIG1hcmtlcnMiIHN0cm9rZT0iIzAwMDAwMCIgZmlsbD0ibm9uZSIvPjwvZz48Zz48cGF0aCBzdHJva2UtZGFzaGFycmF5PSIiIHN0cm9rZS1taXRlcmxpbWl0PSIxMCIgZD0iTSAxMjI2IDEzNCBMIDE0NDIgMTM0IiBwYWludC1vcmRlcj0iZmlsbCBzdHJva2UgbWFya2VycyIgc3Ryb2tlPSIjMDAwMDAwIiBmaWxsPSJub25lIi8+PC9nPjxnPjxnPjxwYXRoIHN0cm9rZT0ibm9uZSIgZmlsbD0ibm9uZSIvPjx0ZXh0IHRyYW5zZm9ybT0ibWF0cml4KDEgMCAwIDEgLTE2NiAtOTUxKSIgdGV4dC1hbmNob3I9Im1pZGRsZSIgeT0iMTA3MiIgeD0iMTUwMC41IiB0ZXh0LWRlY29yYXRpb249InVuZGVmaW5lZCIgZm9udC13ZWlnaHQ9ImJvbGQiIGZvbnQtc3R5bGU9Im5vcm1hbCIgZm9udC1zaXplPSIxNnB4IiBmb250LWZhbWlseT0iQXJpYWwiIHN0cm9rZT0ibm9uZSIgZmlsbD0iIzAwMDAwMCI+UmVzb3VyY2U8L3RleHQ+PC9nPjwvZz48Zz48Zz48cGF0aCBzdHJva2U9Im5vbmUiIGZpbGw9Im5vbmUiLz48dGV4dCB0cmFuc2Zvcm09Im1hdHJpeCgxIDAgMCAxIC0xNjYgLTk1MSkiIHRleHQtYW5jaG9yPSJzdGFydCIgeT0iMTA5OCIgeD0iMTM5NyIgdGV4dC1kZWNvcmF0aW9uPSJ1bmRlZmluZWQiIGZvbnQtd2VpZ2h0PSJub3JtYWwiIGZvbnQtc3R5bGU9Im5vcm1hbCIgZm9udC1zaXplPSIxNnB4IiBmb250LWZhbWlseT0iQXJpYWwiIHN0cm9rZT0ibm9uZSIgZmlsbD0iIzAwMDAwMCI+K2RjdGVybXM6IGlkZW50aWZpZXIge2lkfTwvdGV4dD48L2c+PC9nPjxnPjxnPjxwYXRoIHN0cm9rZT0ibm9uZSIgZmlsbD0ibm9uZSIvPjx0ZXh0IHRyYW5zZm9ybT0ibWF0cml4KDEgMCAwIDEgLTE2NiAtOTUxKSIgdGV4dC1hbmNob3I9InN0YXJ0IiB5PSIxMTE2IiB4PSIxMzk3IiB0ZXh0LWRlY29yYXRpb249InVuZGVmaW5lZCIgZm9udC13ZWlnaHQ9Im5vcm1hbCIgZm9udC1zdHlsZT0ibm9ybWFsIiBmb250LXNpemU9IjE2cHgiIGZvbnQtZmFtaWx5PSJBcmlhbCIgc3Ryb2tlPSJub25lIiBmaWxsPSIjMDAwMDAwIj4rZGN0ZXJtczogYWNjZXNzUmlnaHRzPC90ZXh0PjwvZz48L2c+PGc+PGc+PHBhdGggc3Ryb2tlPSJub25lIiBmaWxsPSJub25lIi8+PHRleHQgdHJhbnNmb3JtPSJtYXRyaXgoMSAwIDAgMSAtMTY2IC05NTEpIiB0ZXh0LWFuY2hvcj0ic3RhcnQiIHk9IjExMzQiIHg9IjEzOTciIHRleHQtZGVjb3JhdGlvbj0idW5kZWZpbmVkIiBmb250LXdlaWdodD0ibm9ybWFsIiBmb250LXN0eWxlPSJub3JtYWwiIGZvbnQtc2l6ZT0iMTZweCIgZm9udC1mYW1pbHk9IkFyaWFsIiBzdHJva2U9Im5vbmUiIGZpbGw9IiMwMDAwMDAiPitkY3Rlcm1zOiBjb25mb3Jtc1RvPC90ZXh0PjwvZz48L2c+PGc+PGc+PHBhdGggc3Ryb2tlPSJub25lIiBmaWxsPSJub25lIi8+PHRleHQgdHJhbnNmb3JtPSJtYXRyaXgoMSAwIDAgMSAtMTY2IC05NTEpIiB0ZXh0LWFuY2hvcj0ic3RhcnQiIHk9IjExNTIiIHg9IjEzOTciIHRleHQtZGVjb3JhdGlvbj0idW5kZWZpbmVkIiBmb250LXdlaWdodD0ibm9ybWFsIiBmb250LXN0eWxlPSJub3JtYWwiIGZvbnQtc2l6ZT0iMTZweCIgZm9udC1mYW1pbHk9IkFyaWFsIiBzdHJva2U9Im5vbmUiIGZpbGw9IiMwMDAwMDAiPitkY2F0OiBjb250YWN0UG9pbnQ8L3RleHQ+PC9nPjwvZz48Zz48Zz48cGF0aCBzdHJva2U9Im5vbmUiIGZpbGw9Im5vbmUiLz48dGV4dCB0cmFuc2Zvcm09Im1hdHJpeCgxIDAgMCAxIC0xNjYgLTk1MSkiIHRleHQtYW5jaG9yPSJzdGFydCIgeT0iMTE3MCIgeD0iMTM5NyIgdGV4dC1kZWNvcmF0aW9uPSJ1bmRlZmluZWQiIGZvbnQtd2VpZ2h0PSJub3JtYWwiIGZvbnQtc3R5bGU9Im5vcm1hbCIgZm9udC1zaXplPSIxNnB4IiBmb250LWZhbWlseT0iQXJpYWwiIHN0cm9rZT0ibm9uZSIgZmlsbD0iIzAwMDAwMCI+K2RjdGVybXM6IGNyZWF0b3I8L3RleHQ+PC9nPjwvZz48Zz48Zz48cGF0aCBzdHJva2U9Im5vbmUiIGZpbGw9Im5vbmUiLz48dGV4dCB0cmFuc2Zvcm09Im1hdHJpeCgxIDAgMCAxIC0xNjYgLTk1MSkiIHRleHQtYW5jaG9yPSJzdGFydCIgeT0iMTE4OCIgeD0iMTM5NyIgdGV4dC1kZWNvcmF0aW9uPSJ1bmRlZmluZWQiIGZvbnQtd2VpZ2h0PSJub3JtYWwiIGZvbnQtc3R5bGU9Im5vcm1hbCIgZm9udC1zaXplPSIxNnB4IiBmb250LWZhbWlseT0iQXJpYWwiIHN0cm9rZT0ibm9uZSIgZmlsbD0iIzAwMDAwMCI+K2RjdGVybXM6IGRlc2NyaXB0aW9uPC90ZXh0PjwvZz48L2c+PGc+PGc+PHBhdGggc3Ryb2tlPSJub25lIiBmaWxsPSJub25lIi8+PHRleHQgdHJhbnNmb3JtPSJtYXRyaXgoMSAwIDAgMSAtMTY2IC05NTEpIiB0ZXh0LWFuY2hvcj0ic3RhcnQiIHk9IjEyMDYiIHg9IjEzOTciIHRleHQtZGVjb3JhdGlvbj0idW5kZWZpbmVkIiBmb250LXdlaWdodD0ibm9ybWFsIiBmb250LXN0eWxlPSJub3JtYWwiIGZvbnQtc2l6ZT0iMTZweCIgZm9udC1mYW1pbHk9IkFyaWFsIiBzdHJva2U9Im5vbmUiIGZpbGw9IiMwMDAwMDAiPitkY3Rlcm1zOiB0aXRsZTwvdGV4dD48L2c+PC9nPjxnPjxnPjxwYXRoIHN0cm9rZT0ibm9uZSIgZmlsbD0ibm9uZSIvPjx0ZXh0IHRyYW5zZm9ybT0ibWF0cml4KDEgMCAwIDEgLTE2NiAtOTUxKSIgdGV4dC1hbmNob3I9InN0YXJ0IiB5PSIxMjI0IiB4PSIxMzk3IiB0ZXh0LWRlY29yYXRpb249InVuZGVmaW5lZCIgZm9udC13ZWlnaHQ9Im5vcm1hbCIgZm9udC1zdHlsZT0ibm9ybWFsIiBmb250LXNpemU9IjE2cHgiIGZvbnQtZmFtaWx5PSJBcmlhbCIgc3Ryb2tlPSJub25lIiBmaWxsPSIjMDAwMDAwIj4rZGN0ZXJtczogaXNzdWVkPC90ZXh0PjwvZz48L2c+PGc+PGc+PHBhdGggc3Ryb2tlPSJub25lIiBmaWxsPSJub25lIi8+PHRleHQgdHJhbnNmb3JtPSJtYXRyaXgoMSAwIDAgMSAtMTY2IC05NTEpIiB0ZXh0LWFuY2hvcj0ic3RhcnQiIHk9IjEyNDIiIHg9IjEzOTciIHRleHQtZGVjb3JhdGlvbj0idW5kZWZpbmVkIiBmb250LXdlaWdodD0ibm9ybWFsIiBmb250LXN0eWxlPSJub3JtYWwiIGZvbnQtc2l6ZT0iMTZweCIgZm9udC1mYW1pbHk9IkFyaWFsIiBzdHJva2U9Im5vbmUiIGZpbGw9IiMwMDAwMDAiPitkY3Rlcm1zOiBtb2RpZmllZDwvdGV4dD48L2c+PC9nPjxnPjxnPjxwYXRoIHN0cm9rZT0ibm9uZSIgZmlsbD0ibm9uZSIvPjx0ZXh0IHRyYW5zZm9ybT0ibWF0cml4KDEgMCAwIDEgLTE2NiAtOTUxKSIgdGV4dC1hbmNob3I9InN0YXJ0IiB5PSIxMjYwIiB4PSIxMzk3IiB0ZXh0LWRlY29yYXRpb249InVuZGVmaW5lZCIgZm9udC13ZWlnaHQ9Im5vcm1hbCIgZm9udC1zdHlsZT0ibm9ybWFsIiBmb250LXNpemU9IjE2cHgiIGZvbnQtZmFtaWx5PSJBcmlhbCIgc3Ryb2tlPSJub25lIiBmaWxsPSIjMDAwMDAwIj4rZGN0ZXJtczogbGFuZ3VhZ2U8L3RleHQ+PC9nPjwvZz48Zz48Zz48cGF0aCBzdHJva2U9Im5vbmUiIGZpbGw9Im5vbmUiLz48dGV4dCB0cmFuc2Zvcm09Im1hdHJpeCgxIDAgMCAxIC0xNjYgLTk1MSkiIHRleHQtYW5jaG9yPSJzdGFydCIgeT0iMTI3OCIgeD0iMTM5NyIgdGV4dC1kZWNvcmF0aW9uPSJ1bmRlZmluZWQiIGZvbnQtd2VpZ2h0PSJub3JtYWwiIGZvbnQtc3R5bGU9Im5vcm1hbCIgZm9udC1zaXplPSIxNnB4IiBmb250LWZhbWlseT0iQXJpYWwiIHN0cm9rZT0ibm9uZSIgZmlsbD0iIzAwMDAwMCI+K2RjdGVybXM6IHB1Ymxpc2hlcjwvdGV4dD48L2c+PC9nPjxnPjxnPjxwYXRoIHN0cm9rZT0ibm9uZSIgZmlsbD0ibm9uZSIvPjx0ZXh0IHRyYW5zZm9ybT0ibWF0cml4KDEgMCAwIDEgLTE2NiAtOTUxKSIgdGV4dC1hbmNob3I9InN0YXJ0IiB5PSIxMjk2IiB4PSIxMzk3IiB0ZXh0LWRlY29yYXRpb249InVuZGVmaW5lZCIgZm9udC13ZWlnaHQ9Im5vcm1hbCIgZm9udC1zdHlsZT0ibm9ybWFsIiBmb250LXNpemU9IjE2cHgiIGZvbnQtZmFtaWx5PSJBcmlhbCIgc3Ryb2tlPSJub25lIiBmaWxsPSIjMDAwMDAwIj4rZGNhdDogdGhlbWU8L3RleHQ+PC9nPjwvZz48Zz48Zz48cGF0aCBzdHJva2U9Im5vbmUiIGZpbGw9Im5vbmUiLz48dGV4dCB0cmFuc2Zvcm09Im1hdHJpeCgxIDAgMCAxIC0xNjYgLTk1MSkiIHRleHQtYW5jaG9yPSJzdGFydCIgeT0iMTMxNCIgeD0iMTM5NyIgdGV4dC1kZWNvcmF0aW9uPSJ1bmRlZmluZWQiIGZvbnQtd2VpZ2h0PSJub3JtYWwiIGZvbnQtc3R5bGU9Im5vcm1hbCIgZm9udC1zaXplPSIxNnB4IiBmb250LWZhbWlseT0iQXJpYWwiIHN0cm9rZT0ibm9uZSIgZmlsbD0iIzAwMDAwMCI+K2RjdGVybXM6IHR5cGU8L3RleHQ+PC9nPjwvZz48Zz48Zz48cGF0aCBzdHJva2U9Im5vbmUiIGZpbGw9Im5vbmUiLz48dGV4dCB0cmFuc2Zvcm09Im1hdHJpeCgxIDAgMCAxIC0xNjYgLTk1MSkiIHRleHQtYW5jaG9yPSJzdGFydCIgeT0iMTMzMiIgeD0iMTM5NyIgdGV4dC1kZWNvcmF0aW9uPSJ1bmRlZmluZWQiIGZvbnQtd2VpZ2h0PSJub3JtYWwiIGZvbnQtc3R5bGU9Im5vcm1hbCIgZm9udC1zaXplPSIxNnB4IiBmb250LWZhbWlseT0iQXJpYWwiIHN0cm9rZT0ibm9uZSIgZmlsbD0iIzAwMDAwMCI+K2RjdGVybXM6IHJlbGF0aW9uPC90ZXh0PjwvZz48L2c+PGc+PGc+PHBhdGggc3Ryb2tlPSJub25lIiBmaWxsPSJub25lIi8+PHRleHQgdHJhbnNmb3JtPSJtYXRyaXgoMSAwIDAgMSAtMTY2IC05NTEpIiB0ZXh0LWFuY2hvcj0ic3RhcnQiIHk9IjEzNTAiIHg9IjEzOTciIHRleHQtZGVjb3JhdGlvbj0idW5kZWZpbmVkIiBmb250LXdlaWdodD0ibm9ybWFsIiBmb250LXN0eWxlPSJub3JtYWwiIGZvbnQtc2l6ZT0iMTZweCIgZm9udC1mYW1pbHk9IkFyaWFsIiBzdHJva2U9Im5vbmUiIGZpbGw9IiMwMDAwMDAiPitkY2F0OiBxdWFsaWZpZWRSZWxhdGlvbjwvdGV4dD48L2c+PC9nPjxnPjxnPjxwYXRoIHN0cm9rZT0ibm9uZSIgZmlsbD0ibm9uZSIvPjx0ZXh0IHRyYW5zZm9ybT0ibWF0cml4KDEgMCAwIDEgLTE2NiAtOTUxKSIgdGV4dC1hbmNob3I9InN0YXJ0IiB5PSIxMzY4IiB4PSIxMzk3IiB0ZXh0LWRlY29yYXRpb249InVuZGVmaW5lZCIgZm9udC13ZWlnaHQ9Im5vcm1hbCIgZm9udC1zdHlsZT0ibm9ybWFsIiBmb250LXNpemU9IjE2cHgiIGZvbnQtZmFtaWx5PSJBcmlhbCIgc3Ryb2tlPSJub25lIiBmaWxsPSIjMDAwMDAwIj4rZGNhdDoga2V5d29yZDwvdGV4dD48L2c+PC9nPjxnPjxnPjxwYXRoIHN0cm9rZT0ibm9uZSIgZmlsbD0ibm9uZSIvPjx0ZXh0IHRyYW5zZm9ybT0ibWF0cml4KDEgMCAwIDEgLTE2NiAtOTUxKSIgdGV4dC1hbmNob3I9InN0YXJ0IiB5PSIxMzg2IiB4PSIxMzk3IiB0ZXh0LWRlY29yYXRpb249InVuZGVmaW5lZCIgZm9udC13ZWlnaHQ9Im5vcm1hbCIgZm9udC1zdHlsZT0ibm9ybWFsIiBmb250LXNpemU9IjE2cHgiIGZvbnQtZmFtaWx5PSJBcmlhbCIgc3Ryb2tlPSJub25lIiBmaWxsPSIjMDAwMDAwIj4rZGN0ZXJtczogbGFuZGluZ1BhZ2U8L3RleHQ+PC9nPjwvZz48Zz48Zz48cGF0aCBzdHJva2U9Im5vbmUiIGZpbGw9Im5vbmUiLz48dGV4dCB0cmFuc2Zvcm09Im1hdHJpeCgxIDAgMCAxIC0xNjYgLTk1MSkiIHRleHQtYW5jaG9yPSJzdGFydCIgeT0iMTQwNCIgeD0iMTM5NyIgdGV4dC1kZWNvcmF0aW9uPSJ1bmRlZmluZWQiIGZvbnQtd2VpZ2h0PSJub3JtYWwiIGZvbnQtc3R5bGU9Im5vcm1hbCIgZm9udC1zaXplPSIxNnB4IiBmb250LWZhbWlseT0iQXJpYWwiIHN0cm9rZT0ibm9uZSIgZmlsbD0iIzAwMDAwMCI+K3Byb3Y6IHF1YWxpZmllZEF0dHJpYnV0aW9uPC90ZXh0PjwvZz48L2c+PGc+PGc+PHBhdGggc3Ryb2tlPSJub25lIiBmaWxsPSJub25lIi8+PHRleHQgdHJhbnNmb3JtPSJtYXRyaXgoMSAwIDAgMSAtMTY2IC05NTEpIiB0ZXh0LWFuY2hvcj0ic3RhcnQiIHk9IjE0MjIiIHg9IjEzOTciIHRleHQtZGVjb3JhdGlvbj0idW5kZWZpbmVkIiBmb250LXdlaWdodD0ibm9ybWFsIiBmb250LXN0eWxlPSJub3JtYWwiIGZvbnQtc2l6ZT0iMTZweCIgZm9udC1mYW1pbHk9IkFyaWFsIiBzdHJva2U9Im5vbmUiIGZpbGw9IiMwMDAwMDAiPitkY3Rlcm1zOiBsaWNlbnNlPC90ZXh0PjwvZz48L2c+PGc+PGc+PHBhdGggc3Ryb2tlPSJub25lIiBmaWxsPSJub25lIi8+PHRleHQgdHJhbnNmb3JtPSJtYXRyaXgoMSAwIDAgMSAtMTY2IC05NTEpIiB0ZXh0LWFuY2hvcj0ic3RhcnQiIHk9IjE0NDAiIHg9IjEzOTciIHRleHQtZGVjb3JhdGlvbj0idW5kZWZpbmVkIiBmb250LXdlaWdodD0ibm9ybWFsIiBmb250LXN0eWxlPSJub3JtYWwiIGZvbnQtc2l6ZT0iMTZweCIgZm9udC1mYW1pbHk9IkFyaWFsIiBzdHJva2U9Im5vbmUiIGZpbGw9IiMwMDAwMDAiPitkY3Rlcm1zOiByaWdodHM8L3RleHQ+PC9nPjwvZz48Zz48Zz48cGF0aCBzdHJva2U9Im5vbmUiIGZpbGw9Im5vbmUiLz48dGV4dCB0cmFuc2Zvcm09Im1hdHJpeCgxIDAgMCAxIC0xNjYgLTk1MSkiIHRleHQtYW5jaG9yPSJzdGFydCIgeT0iMTQ1OCIgeD0iMTM5NyIgdGV4dC1kZWNvcmF0aW9uPSJ1bmRlZmluZWQiIGZvbnQtd2VpZ2h0PSJub3JtYWwiIGZvbnQtc3R5bGU9Im5vcm1hbCIgZm9udC1zaXplPSIxNnB4IiBmb250LWZhbWlseT0iQXJpYWwiIHN0cm9rZT0ibm9uZSIgZmlsbD0iIzAwMDAwMCI+K2RjdGVybXM6IGhhc1BhcnQ8L3RleHQ+PC9nPjwvZz48Zz48Zz48cGF0aCBzdHJva2U9Im5vbmUiIGZpbGw9Im5vbmUiLz48dGV4dCB0cmFuc2Zvcm09Im1hdHJpeCgxIDAgMCAxIC0xNjYgLTk1MSkiIHRleHQtYW5jaG9yPSJzdGFydCIgeT0iMTQ3NiIgeD0iMTM5NyIgdGV4dC1kZWNvcmF0aW9uPSJ1bmRlZmluZWQiIGZvbnQtd2VpZ2h0PSJub3JtYWwiIGZvbnQtc3R5bGU9Im5vcm1hbCIgZm9udC1zaXplPSIxNnB4IiBmb250LWZhbWlseT0iQXJpYWwiIHN0cm9rZT0ibm9uZSIgZmlsbD0iIzAwMDAwMCI+K29kcmw6IGhhc1BvbGljeTwvdGV4dD48L2c+PC9nPjxnPjxnPjxwYXRoIHN0cm9rZT0ibm9uZSIgZmlsbD0ibm9uZSIvPjx0ZXh0IHRyYW5zZm9ybT0ibWF0cml4KDEgMCAwIDEgLTE2NiAtOTUxKSIgdGV4dC1hbmNob3I9InN0YXJ0IiB5PSIxNDk0IiB4PSIxMzk3IiB0ZXh0LWRlY29yYXRpb249InVuZGVmaW5lZCIgZm9udC13ZWlnaHQ9Im5vcm1hbCIgZm9udC1zdHlsZT0ibm9ybWFsIiBmb250LXNpemU9IjE2cHgiIGZvbnQtZmFtaWx5PSJBcmlhbCIgc3Ryb2tlPSJub25lIiBmaWxsPSIjMDAwMDAwIj4rZGN0ZXJtczogaXNSZWZlcmVuY2VkQnk8L3RleHQ+PC9nPjwvZz48Zz48Zz48cGF0aCBzdHJva2U9Im5vbmUiIGZpbGw9Im5vbmUiLz48dGV4dCB0cmFuc2Zvcm09Im1hdHJpeCgxIDAgMCAxIC0xNjYgLTk1MSkiIHRleHQtYW5jaG9yPSJzdGFydCIgeT0iMTUxMiIgeD0iMTM5NyIgdGV4dC1kZWNvcmF0aW9uPSJ1bmRlZmluZWQiIGZvbnQtd2VpZ2h0PSJub3JtYWwiIGZvbnQtc3R5bGU9Im5vcm1hbCIgZm9udC1zaXplPSIxNnB4IiBmb250LWZhbWlseT0iQXJpYWwiIHN0cm9rZT0ibm9uZSIgZmlsbD0iIzAwMDAwMCI+K2RjYXQ6IHByZXZpb3VzVmVyc2lvbjwvdGV4dD48L2c+PC9nPjxnPjxnPjxwYXRoIHN0cm9rZT0ibm9uZSIgZmlsbD0ibm9uZSIvPjx0ZXh0IHRyYW5zZm9ybT0ibWF0cml4KDEgMCAwIDEgLTE2NiAtOTUxKSIgdGV4dC1hbmNob3I9InN0YXJ0IiB5PSIxNTMwIiB4PSIxMzk3IiB0ZXh0LWRlY29yYXRpb249InVuZGVmaW5lZCIgZm9udC13ZWlnaHQ9Im5vcm1hbCIgZm9udC1zdHlsZT0ibm9ybWFsIiBmb250LXNpemU9IjE2cHgiIGZvbnQtZmFtaWx5PSJBcmlhbCIgc3Ryb2tlPSJub25lIiBmaWxsPSIjMDAwMDAwIj4rZGNhdDogaGFzVmVyc2lvbjwvdGV4dD48L2c+PC9nPjxnPjxnPjxwYXRoIHN0cm9rZT0ibm9uZSIgZmlsbD0ibm9uZSIvPjx0ZXh0IHRyYW5zZm9ybT0ibWF0cml4KDEgMCAwIDEgLTE2NiAtOTUxKSIgdGV4dC1hbmNob3I9InN0YXJ0IiB5PSIxNTQ4IiB4PSIxMzk3IiB0ZXh0LWRlY29yYXRpb249InVuZGVmaW5lZCIgZm9udC13ZWlnaHQ9Im5vcm1hbCIgZm9udC1zdHlsZT0ibm9ybWFsIiBmb250LXNpemU9IjE2cHgiIGZvbnQtZmFtaWx5PSJBcmlhbCIgc3Ryb2tlPSJub25lIiBmaWxsPSIjMDAwMDAwIj4rZGNhdDogY3VycmVudFZlcnNpb248L3RleHQ+PC9nPjwvZz48Zz48Zz48cGF0aCBzdHJva2U9Im5vbmUiIGZpbGw9Im5vbmUiLz48dGV4dCB0cmFuc2Zvcm09Im1hdHJpeCgxIDAgMCAxIC0xNjYgLTk1MSkiIHRleHQtYW5jaG9yPSJzdGFydCIgeT0iMTU2NiIgeD0iMTM5NyIgdGV4dC1kZWNvcmF0aW9uPSJ1bmRlZmluZWQiIGZvbnQtd2VpZ2h0PSJub3JtYWwiIGZvbnQtc3R5bGU9Im5vcm1hbCIgZm9udC1zaXplPSIxNnB4IiBmb250LWZhbWlseT0iQXJpYWwiIHN0cm9rZT0ibm9uZSIgZmlsbD0iIzAwMDAwMCI+K2RjdGVybXM6IHJlcGxhY2VzPC90ZXh0PjwvZz48L2c+PGc+PGc+PHBhdGggc3Ryb2tlPSJub25lIiBmaWxsPSJub25lIi8+PHRleHQgdHJhbnNmb3JtPSJtYXRyaXgoMSAwIDAgMSAtMTY2IC05NTEpIiB0ZXh0LWFuY2hvcj0ic3RhcnQiIHk9IjE1ODQiIHg9IjEzOTciIHRleHQtZGVjb3JhdGlvbj0idW5kZWZpbmVkIiBmb250LXdlaWdodD0ibm9ybWFsIiBmb250LXN0eWxlPSJub3JtYWwiIGZvbnQtc2l6ZT0iMTZweCIgZm9udC1mYW1pbHk9IkFyaWFsIiBzdHJva2U9Im5vbmUiIGZpbGw9IiMwMDAwMDAiPitkY2F0OiB2ZXJzaW9uPC90ZXh0PjwvZz48L2c+PGc+PGc+PHBhdGggc3Ryb2tlPSJub25lIiBmaWxsPSJub25lIi8+PHRleHQgdHJhbnNmb3JtPSJtYXRyaXgoMSAwIDAgMSAtMTY2IC05NTEpIiB0ZXh0LWFuY2hvcj0ic3RhcnQiIHk9IjE2MDIiIHg9IjEzOTciIHRleHQtZGVjb3JhdGlvbj0idW5kZWZpbmVkIiBmb250LXdlaWdodD0ibm9ybWFsIiBmb250LXN0eWxlPSJub3JtYWwiIGZvbnQtc2l6ZT0iMTZweCIgZm9udC1mYW1pbHk9IkFyaWFsIiBzdHJva2U9Im5vbmUiIGZpbGw9IiMwMDAwMDAiPithZG1zOiB2ZXJzaW9uTm90ZXM8L3RleHQ+PC9nPjwvZz48Zz48Zz48cGF0aCBzdHJva2U9Im5vbmUiIGZpbGw9Im5vbmUiLz48dGV4dCB0cmFuc2Zvcm09Im1hdHJpeCgxIDAgMCAxIC0xNjYgLTk1MSkiIHRleHQtYW5jaG9yPSJzdGFydCIgeT0iMTYyMCIgeD0iMTM5NyIgdGV4dC1kZWNvcmF0aW9uPSJ1bmRlZmluZWQiIGZvbnQtd2VpZ2h0PSJub3JtYWwiIGZvbnQtc3R5bGU9Im5vcm1hbCIgZm9udC1zaXplPSIxNnB4IiBmb250LWZhbWlseT0iQXJpYWwiIHN0cm9rZT0ibm9uZSIgZmlsbD0iIzAwMDAwMCI+K2FkbXM6IHN0YXR1czwvdGV4dD48L2c+PC9nPjxnPjxnPjxwYXRoIHN0cm9rZT0ibm9uZSIgZmlsbD0ibm9uZSIvPjx0ZXh0IHRyYW5zZm9ybT0ibWF0cml4KDEgMCAwIDEgLTE2NiAtOTUxKSIgdGV4dC1hbmNob3I9InN0YXJ0IiB5PSIxNjM4IiB4PSIxMzk3IiB0ZXh0LWRlY29yYXRpb249InVuZGVmaW5lZCIgZm9udC13ZWlnaHQ9Im5vcm1hbCIgZm9udC1zdHlsZT0ibm9ybWFsIiBmb250LXNpemU9IjE2cHgiIGZvbnQtZmFtaWx5PSJBcmlhbCIgc3Ryb2tlPSJub25lIiBmaWxsPSIjMDAwMDAwIj4rZGNhdDogZmlyc3Q8L3RleHQ+PC9nPjwvZz48Zz48Zz48cGF0aCBzdHJva2U9Im5vbmUiIGZpbGw9Im5vbmUiLz48dGV4dCB0cmFuc2Zvcm09Im1hdHJpeCgxIDAgMCAxIC0xNjYgLTk1MSkiIHRleHQtYW5jaG9yPSJzdGFydCIgeT0iMTY1NiIgeD0iMTM5NyIgdGV4dC1kZWNvcmF0aW9uPSJ1bmRlZmluZWQiIGZvbnQtd2VpZ2h0PSJub3JtYWwiIGZvbnQtc3R5bGU9Im5vcm1hbCIgZm9udC1zaXplPSIxNnB4IiBmb250LWZhbWlseT0iQXJpYWwiIHN0cm9rZT0ibm9uZSIgZmlsbD0iIzAwMDAwMCI+K2RjYXQ6IGxhc3Q8L3RleHQ+PC9nPjwvZz48Zz48Zz48cGF0aCBzdHJva2U9Im5vbmUiIGZpbGw9Im5vbmUiLz48dGV4dCB0cmFuc2Zvcm09Im1hdHJpeCgxIDAgMCAxIC0xNjYgLTk1MSkiIHRleHQtYW5jaG9yPSJzdGFydCIgeT0iMTY3NCIgeD0iMTM5NyIgdGV4dC1kZWNvcmF0aW9uPSJ1bmRlZmluZWQiIGZvbnQtd2VpZ2h0PSJub3JtYWwiIGZvbnQtc3R5bGU9Im5vcm1hbCIgZm9udC1zaXplPSIxNnB4IiBmb250LWZhbWlseT0iQXJpYWwiIHN0cm9rZT0ibm9uZSIgZmlsbD0iIzAwMDAwMCI+K2RjYXQ6IHByZXY8L3RleHQ+PC9nPjwvZz48Zz48cmVjdCBmaWxsLW9wYWNpdHk9IjAuMiIgdHJhbnNmb3JtPSJtYXRyaXgoMSAwIDAgMSAtMTY2IC05NTEpIiBoZWlnaHQ9IjE2MiIgd2lkdGg9IjE3NS44NjcxODc1IiB5PSIxNDU1IiB4PSIyMzkiIHN0cm9rZT0ibm9uZSIgZmlsbD0iI0MwQzBDMCIvPjwvZz48Zz48cmVjdCB0cmFuc2Zvcm09Im1hdHJpeCgxIDAgMCAxIC0xNjYgLTk1MSkiIGhlaWdodD0iMTYyIiB3aWR0aD0iMTc1Ljg2NzE4NzUiIHk9IjE0NDgiIHg9IjIzMiIgc3Ryb2tlPSJub25lIiBmaWxsPSIjZmZmZmZmIi8+PC9nPjxnPjxwYXRoIHN0cm9rZS1kYXNoYXJyYXk9IiIgc3Ryb2tlLW1pdGVybGltaXQ9IjEwIiBkPSJNIDY2IDQ5NyBMIDI0MS44NjcxODc1IDQ5NyBMIDI0MS44NjcxODc1IDY1OSBMIDY2IDY1OSBMIDY2IDQ5NyBaIFoiIHBhaW50LW9yZGVyPSJmaWxsIHN0cm9rZSBtYXJrZXJzIiBzdHJva2U9IiMwMDAwMDAiIGZpbGw9Im5vbmUiLz48L2c+PGc+PHBhdGggc3Ryb2tlLWRhc2hhcnJheT0iIiBzdHJva2UtbWl0ZXJsaW1pdD0iMTAiIGQ9Ik0gNjYgNTI1IEwgMjQxLjg2NzE4NzUgNTI1IiBwYWludC1vcmRlcj0iZmlsbCBzdHJva2UgbWFya2VycyIgc3Ryb2tlPSIjMDAwMDAwIiBmaWxsPSJub25lIi8+PC9nPjxnPjxnPjxwYXRoIHN0cm9rZT0ibm9uZSIgZmlsbD0ibm9uZSIvPjx0ZXh0IHRyYW5zZm9ybT0ibWF0cml4KDEgMCAwIDEgLTE2NiAtOTUxKSIgdGV4dC1hbmNob3I9Im1pZGRsZSIgeT0iMTQ2MyIgeD0iMzIwLjQzMzU5Mzc1IiB0ZXh0LWRlY29yYXRpb249InVuZGVmaW5lZCIgZm9udC13ZWlnaHQ9ImJvbGQiIGZvbnQtc3R5bGU9Im5vcm1hbCIgZm9udC1zaXplPSIxNnB4IiBmb250LWZhbWlseT0iQXJpYWwiIHN0cm9rZT0ibm9uZSIgZmlsbD0iIzAwMDAwMCI+Q2F0YWxvZzwvdGV4dD48L2c+PC9nPjxnPjxnPjxwYXRoIHN0cm9rZT0ibm9uZSIgZmlsbD0ibm9uZSIvPjx0ZXh0IHRyYW5zZm9ybT0ibWF0cml4KDEgMCAwIDEgLTE2NiAtOTUxKSIgdGV4dC1hbmNob3I9InN0YXJ0IiB5PSIxNDg5IiB4PSIyMzciIHRleHQtZGVjb3JhdGlvbj0idW5kZWZpbmVkIiBmb250LXdlaWdodD0ibm9ybWFsIiBmb250LXN0eWxlPSJub3JtYWwiIGZvbnQtc2l6ZT0iMTZweCIgZm9udC1mYW1pbHk9IkFyaWFsIiBzdHJva2U9Im5vbmUiIGZpbGw9IiMwMDAwMDAiPitkY2F0OiBjYXRhbG9nPC90ZXh0PjwvZz48L2c+PGc+PGc+PHBhdGggc3Ryb2tlPSJub25lIiBmaWxsPSJub25lIi8+PHRleHQgdHJhbnNmb3JtPSJtYXRyaXgoMSAwIDAgMSAtMTY2IC05NTEpIiB0ZXh0LWFuY2hvcj0ic3RhcnQiIHk9IjE1MDciIHg9IjIzNyIgdGV4dC1kZWNvcmF0aW9uPSJ1bmRlZmluZWQiIGZvbnQtd2VpZ2h0PSJub3JtYWwiIGZvbnQtc3R5bGU9Im5vcm1hbCIgZm9udC1zaXplPSIxNnB4IiBmb250LWZhbWlseT0iQXJpYWwiIHN0cm9rZT0ibm9uZSIgZmlsbD0iIzAwMDAwMCI+K2RjYXQ6IGRhdGFzZXQ8L3RleHQ+PC9nPjwvZz48Zz48Zz48cGF0aCBzdHJva2U9Im5vbmUiIGZpbGw9Im5vbmUiLz48dGV4dCB0cmFuc2Zvcm09Im1hdHJpeCgxIDAgMCAxIC0xNjYgLTk1MSkiIHRleHQtYW5jaG9yPSJzdGFydCIgeT0iMTUyNSIgeD0iMjM3IiB0ZXh0LWRlY29yYXRpb249InVuZGVmaW5lZCIgZm9udC13ZWlnaHQ9Im5vcm1hbCIgZm9udC1zdHlsZT0ibm9ybWFsIiBmb250LXNpemU9IjE2cHgiIGZvbnQtZmFtaWx5PSJBcmlhbCIgc3Ryb2tlPSJub25lIiBmaWxsPSIjMDAwMDAwIj4rZGNhdDogcmVjb3JkPC90ZXh0PjwvZz48L2c+PGc+PGc+PHBhdGggc3Ryb2tlPSJub25lIiBmaWxsPSJub25lIi8+PHRleHQgdHJhbnNmb3JtPSJtYXRyaXgoMSAwIDAgMSAtMTY2IC05NTEpIiB0ZXh0LWFuY2hvcj0ic3RhcnQiIHk9IjE1NDMiIHg9IjIzNyIgdGV4dC1kZWNvcmF0aW9uPSJ1bmRlZmluZWQiIGZvbnQtd2VpZ2h0PSJub3JtYWwiIGZvbnQtc3R5bGU9Im5vcm1hbCIgZm9udC1zaXplPSIxNnB4IiBmb250LWZhbWlseT0iQXJpYWwiIHN0cm9rZT0ibm9uZSIgZmlsbD0iIzAwMDAwMCI+K2RjYXQ6IHJlc291cmNlPC90ZXh0PjwvZz48L2c+PGc+PGc+PHBhdGggc3Ryb2tlPSJub25lIiBmaWxsPSJub25lIi8+PHRleHQgdHJhbnNmb3JtPSJtYXRyaXgoMSAwIDAgMSAtMTY2IC05NTEpIiB0ZXh0LWFuY2hvcj0ic3RhcnQiIHk9IjE1NjEiIHg9IjIzNyIgdGV4dC1kZWNvcmF0aW9uPSJ1bmRlZmluZWQiIGZvbnQtd2VpZ2h0PSJub3JtYWwiIGZvbnQtc3R5bGU9Im5vcm1hbCIgZm9udC1zaXplPSIxNnB4IiBmb250LWZhbWlseT0iQXJpYWwiIHN0cm9rZT0ibm9uZSIgZmlsbD0iIzAwMDAwMCI+K2RjYXQ6IHNlcnZpY2U8L3RleHQ+PC9nPjwvZz48Zz48Zz48cGF0aCBzdHJva2U9Im5vbmUiIGZpbGw9Im5vbmUiLz48dGV4dCB0cmFuc2Zvcm09Im1hdHJpeCgxIDAgMCAxIC0xNjYgLTk1MSkiIHRleHQtYW5jaG9yPSJzdGFydCIgeT0iMTU3OSIgeD0iMjM3IiB0ZXh0LWRlY29yYXRpb249InVuZGVmaW5lZCIgZm9udC13ZWlnaHQ9Im5vcm1hbCIgZm9udC1zdHlsZT0ibm9ybWFsIiBmb250LXNpemU9IjE2cHgiIGZvbnQtZmFtaWx5PSJBcmlhbCIgc3Ryb2tlPSJub25lIiBmaWxsPSIjMDAwMDAwIj4rZGNhdDogdGhlbWVUYXhvbm9teTwvdGV4dD48L2c+PC9nPjxnPjxnPjxwYXRoIHN0cm9rZT0ibm9uZSIgZmlsbD0ibm9uZSIvPjx0ZXh0IHRyYW5zZm9ybT0ibWF0cml4KDEgMCAwIDEgLTE2NiAtOTUxKSIgdGV4dC1hbmNob3I9InN0YXJ0IiB5PSIxNTk3IiB4PSIyMzciIHRleHQtZGVjb3JhdGlvbj0idW5kZWZpbmVkIiBmb250LXdlaWdodD0ibm9ybWFsIiBmb250LXN0eWxlPSJub3JtYWwiIGZvbnQtc2l6ZT0iMTZweCIgZm9udC1mYW1pbHk9IkFyaWFsIiBzdHJva2U9Im5vbmUiIGZpbGw9IiMwMDAwMDAiPitmb2FmOiBob21lcGFnZTwvdGV4dD48L2c+PC9nPjxnPjxyZWN0IGZpbGwtb3BhY2l0eT0iMC4yIiB0cmFuc2Zvcm09Im1hdHJpeCgxIDAgMCAxIC0xNjYgLTk1MSkiIGhlaWdodD0iMTk4IiB3aWR0aD0iMzE0LjU4NTkzNzUiIHk9IjEzMDQiIHg9IjQ2MyIgc3Ryb2tlPSJub25lIiBmaWxsPSIjQzBDMEMwIi8+PC9nPjxnPjxyZWN0IHRyYW5zZm9ybT0ibWF0cml4KDEgMCAwIDEgLTE2NiAtOTUxKSIgaGVpZ2h0PSIxOTgiIHdpZHRoPSIzMTQuNTg1OTM3NSIgeT0iMTI5NyIgeD0iNDU2IiBzdHJva2U9Im5vbmUiIGZpbGw9IiNmZmZmZmYiLz48L2c+PGc+PHBhdGggc3Ryb2tlLWRhc2hhcnJheT0iIiBzdHJva2UtbWl0ZXJsaW1pdD0iMTAiIGQ9Ik0gMjkwIDM0NiBMIDYwNC41ODU5Mzc1IDM0NiBMIDYwNC41ODU5Mzc1IDU0NCBMIDI5MCA1NDQgTCAyOTAgMzQ2IFogWiIgcGFpbnQtb3JkZXI9ImZpbGwgc3Ryb2tlIG1hcmtlcnMiIHN0cm9rZT0iIzAwMDAwMCIgZmlsbD0ibm9uZSIvPjwvZz48Zz48cGF0aCBzdHJva2UtZGFzaGFycmF5PSIiIHN0cm9rZS1taXRlcmxpbWl0PSIxMCIgZD0iTSAyOTAgMzc0IEwgNjA0LjU4NTkzNzUgMzc0IiBwYWludC1vcmRlcj0iZmlsbCBzdHJva2UgbWFya2VycyIgc3Ryb2tlPSIjMDAwMDAwIiBmaWxsPSJub25lIi8+PC9nPjxnPjxnPjxwYXRoIHN0cm9rZT0ibm9uZSIgZmlsbD0ibm9uZSIvPjx0ZXh0IHRyYW5zZm9ybT0ibWF0cml4KDEgMCAwIDEgLTE2NiAtOTUxKSIgdGV4dC1hbmNob3I9Im1pZGRsZSIgeT0iMTMxMiIgeD0iNjEzLjc5Mjk2ODc1IiB0ZXh0LWRlY29yYXRpb249InVuZGVmaW5lZCIgZm9udC13ZWlnaHQ9ImJvbGQiIGZvbnQtc3R5bGU9Im5vcm1hbCIgZm9udC1zaXplPSIxNnB4IiBmb250LWZhbWlseT0iQXJpYWwiIHN0cm9rZT0ibm9uZSIgZmlsbD0iIzAwMDAwMCI+RGF0YXNldDwvdGV4dD48L2c+PC9nPjxnPjxnPjxwYXRoIHN0cm9rZT0ibm9uZSIgZmlsbD0ibm9uZSIvPjx0ZXh0IHRyYW5zZm9ybT0ibWF0cml4KDEgMCAwIDEgLTE2NiAtOTUxKSIgdGV4dC1hbmNob3I9InN0YXJ0IiB5PSIxMzM4IiB4PSI0NjEiIHRleHQtZGVjb3JhdGlvbj0idW5kZWZpbmVkIiBmb250LXdlaWdodD0ibm9ybWFsIiBmb250LXN0eWxlPSJub3JtYWwiIGZvbnQtc2l6ZT0iMTZweCIgZm9udC1mYW1pbHk9IkFyaWFsIiBzdHJva2U9Im5vbmUiIGZpbGw9IiMwMDAwMDAiPitkY2F0OiBpblNlcmllczwvdGV4dD48L2c+PC9nPjxnPjxnPjxwYXRoIHN0cm9rZT0ibm9uZSIgZmlsbD0ibm9uZSIvPjx0ZXh0IHRyYW5zZm9ybT0ibWF0cml4KDEgMCAwIDEgLTE2NiAtOTUxKSIgdGV4dC1hbmNob3I9InN0YXJ0IiB5PSIxMzU2IiB4PSI0NjEiIHRleHQtZGVjb3JhdGlvbj0idW5kZWZpbmVkIiBmb250LXdlaWdodD0ibm9ybWFsIiBmb250LXN0eWxlPSJub3JtYWwiIGZvbnQtc2l6ZT0iMTZweCIgZm9udC1mYW1pbHk9IkFyaWFsIiBzdHJva2U9Im5vbmUiIGZpbGw9IiMwMDAwMDAiPitkY2F0OiBzcGF0aWFsUmVzb2x1dGlvbkluTWV0ZXJzPC90ZXh0PjwvZz48L2c+PGc+PGc+PHBhdGggc3Ryb2tlPSJub25lIiBmaWxsPSJub25lIi8+PHRleHQgdHJhbnNmb3JtPSJtYXRyaXgoMSAwIDAgMSAtMTY2IC05NTEpIiB0ZXh0LWFuY2hvcj0ic3RhcnQiIHk9IjEzNzQiIHg9IjQ2MSIgdGV4dC1kZWNvcmF0aW9uPSJ1bmRlZmluZWQiIGZvbnQtd2VpZ2h0PSJub3JtYWwiIGZvbnQtc3R5bGU9Im5vcm1hbCIgZm9udC1zaXplPSIxNnB4IiBmb250LWZhbWlseT0iQXJpYWwiIHN0cm9rZT0ibm9uZSIgZmlsbD0iIzAwMDAwMCI+K2RjYXQ6IHRlbXBvcmFsUmVzb2x1dGlvbjwvdGV4dD48L2c+PC9nPjxnPjxnPjxwYXRoIHN0cm9rZT0ibm9uZSIgZmlsbD0ibm9uZSIvPjx0ZXh0IHRyYW5zZm9ybT0ibWF0cml4KDEgMCAwIDEgLTE2NiAtOTUxKSIgdGV4dC1hbmNob3I9InN0YXJ0IiB5PSIxMzkyIiB4PSI0NjEiIHRleHQtZGVjb3JhdGlvbj0idW5kZWZpbmVkIiBmb250LXdlaWdodD0ibm9ybWFsIiBmb250LXN0eWxlPSJub3JtYWwiIGZvbnQtc2l6ZT0iMTZweCIgZm9udC1mYW1pbHk9IkFyaWFsIiBzdHJva2U9Im5vbmUiIGZpbGw9IiMwMDAwMDAiPitkY3Rlcm1zOiBhY2NydWFsUGVyaW9kaWNpdHk8L3RleHQ+PC9nPjwvZz48Zz48Zz48cGF0aCBzdHJva2U9Im5vbmUiIGZpbGw9Im5vbmUiLz48dGV4dCB0cmFuc2Zvcm09Im1hdHJpeCgxIDAgMCAxIC0xNjYgLTk1MSkiIHRleHQtYW5jaG9yPSJzdGFydCIgeT0iMTQxMCIgeD0iNDYxIiB0ZXh0LWRlY29yYXRpb249InVuZGVmaW5lZCIgZm9udC13ZWlnaHQ9Im5vcm1hbCIgZm9udC1zdHlsZT0ibm9ybWFsIiBmb250LXNpemU9IjE2cHgiIGZvbnQtZmFtaWx5PSJBcmlhbCIgc3Ryb2tlPSJub25lIiBmaWxsPSIjMDAwMDAwIj4rZGNhdDogZGlzdHJpYnV0aW9uPC90ZXh0PjwvZz48L2c+PGc+PGc+PHBhdGggc3Ryb2tlPSJub25lIiBmaWxsPSJub25lIi8+PHRleHQgdHJhbnNmb3JtPSJtYXRyaXgoMSAwIDAgMSAtMTY2IC05NTEpIiB0ZXh0LWFuY2hvcj0ic3RhcnQiIHk9IjE0MjgiIHg9IjQ2MSIgdGV4dC1kZWNvcmF0aW9uPSJ1bmRlZmluZWQiIGZvbnQtd2VpZ2h0PSJub3JtYWwiIGZvbnQtc3R5bGU9Im5vcm1hbCIgZm9udC1zaXplPSIxNnB4IiBmb250LWZhbWlseT0iQXJpYWwiIHN0cm9rZT0ibm9uZSIgZmlsbD0iIzAwMDAwMCI+K2RjdGVybXM6IHNwYXRpYWw8L3RleHQ+PC9nPjwvZz48Zz48Zz48cGF0aCBzdHJva2U9Im5vbmUiIGZpbGw9Im5vbmUiLz48dGV4dCB0cmFuc2Zvcm09Im1hdHJpeCgxIDAgMCAxIC0xNjYgLTk1MSkiIHRleHQtYW5jaG9yPSJzdGFydCIgeT0iMTQ0NiIgeD0iNDYxIiB0ZXh0LWRlY29yYXRpb249InVuZGVmaW5lZCIgZm9udC13ZWlnaHQ9Im5vcm1hbCIgZm9udC1zdHlsZT0ibm9ybWFsIiBmb250LXNpemU9IjE2cHgiIGZvbnQtZmFtaWx5PSJBcmlhbCIgc3Ryb2tlPSJub25lIiBmaWxsPSIjMDAwMDAwIj4rZGN0ZXJtczogdGVtcG9yYWw8L3RleHQ+PC9nPjwvZz48Zz48Zz48cGF0aCBzdHJva2U9Im5vbmUiIGZpbGw9Im5vbmUiLz48dGV4dCB0cmFuc2Zvcm09Im1hdHJpeCgxIDAgMCAxIC0xNjYgLTk1MSkiIHRleHQtYW5jaG9yPSJzdGFydCIgeT0iMTQ2NCIgeD0iNDYxIiB0ZXh0LWRlY29yYXRpb249InVuZGVmaW5lZCIgZm9udC13ZWlnaHQ9Im5vcm1hbCIgZm9udC1zdHlsZT0ibm9ybWFsIiBmb250LXNpemU9IjE2cHgiIGZvbnQtZmFtaWx5PSJBcmlhbCIgc3Ryb2tlPSJub25lIiBmaWxsPSIjMDAwMDAwIj4rcHJvdjogd2FzR2VuZXJhdGVkQnk8L3RleHQ+PC9nPjwvZz48Zz48Zz48cGF0aCBzdHJva2U9Im5vbmUiIGZpbGw9Im5vbmUiLz48dGV4dCB0cmFuc2Zvcm09Im1hdHJpeCgxIDAgMCAxIC0xNjYgLTk1MSkiIHRleHQtYW5jaG9yPSJzdGFydCIgeT0iMTQ4MiIgeD0iNDYxIiB0ZXh0LWRlY29yYXRpb249InVuZGVmaW5lZCIgZm9udC13ZWlnaHQ9Im5vcm1hbCIgZm9udC1zdHlsZT0ibm9ybWFsIiBmb250LXNpemU9IjE2cHgiIGZvbnQtZmFtaWx5PSJBcmlhbCIgc3Ryb2tlPSJub25lIiBmaWxsPSIjMDAwMDAwIj4rZHByb2Q6IGluZm9ybWF0aW9uU2Vuc2l0aXZpdHlDbGFzc2lmaWNhdGlvbjwvdGV4dD48L2c+PC9nPjxnPjxyZWN0IGZpbGwtb3BhY2l0eT0iMC4yIiB0cmFuc2Zvcm09Im1hdHJpeCgxIDAgMCAxIC0xNjYgLTk1MSkiIGhlaWdodD0iMTQ0IiB3aWR0aD0iMjE3LjY2NDA2MjUiIHk9IjEzMTIiIHg9IjExNDMiIHN0cm9rZT0ibm9uZSIgZmlsbD0iI0MwQzBDMCIvPjwvZz48Zz48cmVjdCB0cmFuc2Zvcm09Im1hdHJpeCgxIDAgMCAxIC0xNjYgLTk1MSkiIGhlaWdodD0iMTQ0IiB3aWR0aD0iMjE3LjY2NDA2MjUiIHk9IjEzMDUiIHg9IjExMzYiIHN0cm9rZT0ibm9uZSIgZmlsbD0iI2ZmZmZmZiIvPjwvZz48Zz48cGF0aCBzdHJva2UtZGFzaGFycmF5PSIiIHN0cm9rZS1taXRlcmxpbWl0PSIxMCIgZD0iTSA5NzAgMzU0IEwgMTE4Ny42NjQwNjI1IDM1NCBMIDExODcuNjY0MDYyNSA0OTggTCA5NzAgNDk4IEwgOTcwIDM1NCBaIFoiIHBhaW50LW9yZGVyPSJmaWxsIHN0cm9rZSBtYXJrZXJzIiBzdHJva2U9IiMwMDAwMDAiIGZpbGw9Im5vbmUiLz48L2c+PGc+PHBhdGggc3Ryb2tlLWRhc2hhcnJheT0iIiBzdHJva2UtbWl0ZXJsaW1pdD0iMTAiIGQ9Ik0gOTcwIDM4MiBMIDExODcuNjY0MDYyNSAzODIiIHBhaW50LW9yZGVyPSJmaWxsIHN0cm9rZSBtYXJrZXJzIiBzdHJva2U9IiMwMDAwMDAiIGZpbGw9Im5vbmUiLz48L2c+PGc+PGc+PHBhdGggc3Ryb2tlPSJub25lIiBmaWxsPSJub25lIi8+PHRleHQgdHJhbnNmb3JtPSJtYXRyaXgoMSAwIDAgMSAtMTY2IC05NTEpIiB0ZXh0LWFuY2hvcj0ibWlkZGxlIiB5PSIxMzIwIiB4PSIxMjQ1LjMzMjAzMTI1IiB0ZXh0LWRlY29yYXRpb249InVuZGVmaW5lZCIgZm9udC13ZWlnaHQ9ImJvbGQiIGZvbnQtc3R5bGU9Im5vcm1hbCIgZm9udC1zaXplPSIxNnB4IiBmb250LWZhbWlseT0iQXJpYWwiIHN0cm9rZT0ibm9uZSIgZmlsbD0iIzAwMDAwMCI+RGF0YVNlcnZpY2U8L3RleHQ+PC9nPjwvZz48Zz48Zz48cGF0aCBzdHJva2U9Im5vbmUiIGZpbGw9Im5vbmUiLz48dGV4dCB0cmFuc2Zvcm09Im1hdHJpeCgxIDAgMCAxIC0xNjYgLTk1MSkiIHRleHQtYW5jaG9yPSJzdGFydCIgeT0iMTM0NiIgeD0iMTE0MSIgdGV4dC1kZWNvcmF0aW9uPSJ1bmRlZmluZWQiIGZvbnQtd2VpZ2h0PSJub3JtYWwiIGZvbnQtc3R5bGU9Im5vcm1hbCIgZm9udC1zaXplPSIxNnB4IiBmb250LWZhbWlseT0iQXJpYWwiIHN0cm9rZT0ibm9uZSIgZmlsbD0iIzAwMDAwMCI+K2RjYXQ6IGVuZHBvaW50RGVzY3JpcHRpb248L3RleHQ+PC9nPjwvZz48Zz48Zz48cGF0aCBzdHJva2U9Im5vbmUiIGZpbGw9Im5vbmUiLz48dGV4dCB0cmFuc2Zvcm09Im1hdHJpeCgxIDAgMCAxIC0xNjYgLTk1MSkiIHRleHQtYW5jaG9yPSJzdGFydCIgeT0iMTM2NCIgeD0iMTE0MSIgdGV4dC1kZWNvcmF0aW9uPSJ1bmRlZmluZWQiIGZvbnQtd2VpZ2h0PSJub3JtYWwiIGZvbnQtc3R5bGU9Im5vcm1hbCIgZm9udC1zaXplPSIxNnB4IiBmb250LWZhbWlseT0iQXJpYWwiIHN0cm9rZT0ibm9uZSIgZmlsbD0iIzAwMDAwMCI+K2RjYXQ6IGVuZHBvaW50VVJMPC90ZXh0PjwvZz48L2c+PGc+PGc+PHBhdGggc3Ryb2tlPSJub25lIiBmaWxsPSJub25lIi8+PHRleHQgdHJhbnNmb3JtPSJtYXRyaXgoMSAwIDAgMSAtMTY2IC05NTEpIiB0ZXh0LWFuY2hvcj0ic3RhcnQiIHk9IjEzODIiIHg9IjExNDEiIHRleHQtZGVjb3JhdGlvbj0idW5kZWZpbmVkIiBmb250LXdlaWdodD0ibm9ybWFsIiBmb250LXN0eWxlPSJub3JtYWwiIGZvbnQtc2l6ZT0iMTZweCIgZm9udC1mYW1pbHk9IkFyaWFsIiBzdHJva2U9Im5vbmUiIGZpbGw9IiMwMDAwMDAiPitkY2F0OiBzZXJ2ZXNEYXRhc2V0PC90ZXh0PjwvZz48L2c+PGc+PGc+PHBhdGggc3Ryb2tlPSJub25lIiBmaWxsPSJub25lIi8+PHRleHQgdHJhbnNmb3JtPSJtYXRyaXgoMSAwIDAgMSAtMTY2IC05NTEpIiB0ZXh0LWFuY2hvcj0ic3RhcnQiIHk9IjE0MDAiIHg9IjExNDEiIHRleHQtZGVjb3JhdGlvbj0idW5kZWZpbmVkIiBmb250LXdlaWdodD0ibm9ybWFsIiBmb250LXN0eWxlPSJub3JtYWwiIGZvbnQtc2l6ZT0iMTZweCIgZm9udC1mYW1pbHk9IkFyaWFsIiBzdHJva2U9Im5vbmUiIGZpbGw9IiMwMDAwMDAiPitkcHJvZDogcHJvdG9jb2w8L3RleHQ+PC9nPjwvZz48Zz48Zz48cGF0aCBzdHJva2U9Im5vbmUiIGZpbGw9Im5vbmUiLz48dGV4dCB0cmFuc2Zvcm09Im1hdHJpeCgxIDAgMCAxIC0xNjYgLTk1MSkiIHRleHQtYW5jaG9yPSJzdGFydCIgeT0iMTQxOCIgeD0iMTE0MSIgdGV4dC1kZWNvcmF0aW9uPSJ1bmRlZmluZWQiIGZvbnQtd2VpZ2h0PSJub3JtYWwiIGZvbnQtc3R5bGU9Im5vcm1hbCIgZm9udC1zaXplPSIxNnB4IiBmb250LWZhbWlseT0iQXJpYWwiIHN0cm9rZT0ibm9uZSIgZmlsbD0iIzAwMDAwMCI+K2Rwcm9kOiBzZWN1cml0eVNjaGVtYVR5cGU8L3RleHQ+PC9nPjwvZz48Zz48Zz48cGF0aCBzdHJva2U9Im5vbmUiIGZpbGw9Im5vbmUiLz48dGV4dCB0cmFuc2Zvcm09Im1hdHJpeCgxIDAgMCAxIC0xNjYgLTk1MSkiIHRleHQtYW5jaG9yPSJzdGFydCIgeT0iMTQzNiIgeD0iMTE0MSIgdGV4dC1kZWNvcmF0aW9uPSJ1bmRlZmluZWQiIGZvbnQtd2VpZ2h0PSJub3JtYWwiIGZvbnQtc3R5bGU9Im5vcm1hbCIgZm9udC1zaXplPSIxNnB4IiBmb250LWZhbWlseT0iQXJpYWwiIHN0cm9rZT0ibm9uZSIgZmlsbD0iIzAwMDAwMCI+K2Rwcm9kOiBpc0FjY2Vzc1NlcnZpY2VPZjwvdGV4dD48L2c+PC9nPjxnPjxyZWN0IGZpbGwtb3BhY2l0eT0iMC4yIiB0cmFuc2Zvcm09Im1hdHJpeCgxIDAgMCAxIC0xNjYgLTk1MSkiIGhlaWdodD0iMTQ0IiB3aWR0aD0iMTY3LjgyODEyNSIgeT0iMTAzMiIgeD0iNTk5IiBzdHJva2U9Im5vbmUiIGZpbGw9IiNDMEMwQzAiLz48L2c+PGc+PHJlY3QgdHJhbnNmb3JtPSJtYXRyaXgoMSAwIDAgMSAtMTY2IC05NTEpIiBoZWlnaHQ9IjE0NCIgd2lkdGg9IjE2Ny44MjgxMjUiIHk9IjEwMjUiIHg9IjU5MiIgc3Ryb2tlPSJub25lIiBmaWxsPSIjZmZmZmZmIi8+PC9nPjxnPjxwYXRoIHN0cm9rZS1kYXNoYXJyYXk9IiIgc3Ryb2tlLW1pdGVybGltaXQ9IjEwIiBkPSJNIDQyNiA3NCBMIDU5My44MjgxMjUgNzQgTCA1OTMuODI4MTI1IDIxOCBMIDQyNiAyMTggTCA0MjYgNzQgWiBaIiBwYWludC1vcmRlcj0iZmlsbCBzdHJva2UgbWFya2VycyIgc3Ryb2tlPSIjMDAwMDAwIiBmaWxsPSJub25lIi8+PC9nPjxnPjxwYXRoIHN0cm9rZS1kYXNoYXJyYXk9IiIgc3Ryb2tlLW1pdGVybGltaXQ9IjEwIiBkPSJNIDQyNiAxMDIgTCA1OTMuODI4MTI1IDEwMiIgcGFpbnQtb3JkZXI9ImZpbGwgc3Ryb2tlIG1hcmtlcnMiIHN0cm9rZT0iIzAwMDAwMCIgZmlsbD0ibm9uZSIvPjwvZz48Zz48Zz48cGF0aCBzdHJva2U9Im5vbmUiIGZpbGw9Im5vbmUiLz48dGV4dCB0cmFuc2Zvcm09Im1hdHJpeCgxIDAgMCAxIC0xNjYgLTk1MSkiIHRleHQtYW5jaG9yPSJtaWRkbGUiIHk9IjEwNDAiIHg9IjY3Ni40MTQwNjI1IiB0ZXh0LWRlY29yYXRpb249InVuZGVmaW5lZCIgZm9udC13ZWlnaHQ9ImJvbGQiIGZvbnQtc3R5bGU9Im5vcm1hbCIgZm9udC1zaXplPSIxNnB4IiBmb250LWZhbWlseT0iQXJpYWwiIHN0cm9rZT0ibm9uZSIgZmlsbD0iIzAwMDAwMCI+Q2F0YWxvZ1JlY29yZDwvdGV4dD48L2c+PC9nPjxnPjxnPjxwYXRoIHN0cm9rZT0ibm9uZSIgZmlsbD0ibm9uZSIvPjx0ZXh0IHRyYW5zZm9ybT0ibWF0cml4KDEgMCAwIDEgLTE2NiAtOTUxKSIgdGV4dC1hbmNob3I9InN0YXJ0IiB5PSIxMDY2IiB4PSI1OTciIHRleHQtZGVjb3JhdGlvbj0idW5kZWZpbmVkIiBmb250LXdlaWdodD0ibm9ybWFsIiBmb250LXN0eWxlPSJub3JtYWwiIGZvbnQtc2l6ZT0iMTZweCIgZm9udC1mYW1pbHk9IkFyaWFsIiBzdHJva2U9Im5vbmUiIGZpbGw9IiMwMDAwMDAiPitkY3Rlcm1zOiBjb25mb3Jtc1RvPC90ZXh0PjwvZz48L2c+PGc+PGc+PHBhdGggc3Ryb2tlPSJub25lIiBmaWxsPSJub25lIi8+PHRleHQgdHJhbnNmb3JtPSJtYXRyaXgoMSAwIDAgMSAtMTY2IC05NTEpIiB0ZXh0LWFuY2hvcj0ic3RhcnQiIHk9IjEwODQiIHg9IjU5NyIgdGV4dC1kZWNvcmF0aW9uPSJ1bmRlZmluZWQiIGZvbnQtd2VpZ2h0PSJub3JtYWwiIGZvbnQtc3R5bGU9Im5vcm1hbCIgZm9udC1zaXplPSIxNnB4IiBmb250LWZhbWlseT0iQXJpYWwiIHN0cm9rZT0ibm9uZSIgZmlsbD0iIzAwMDAwMCI+K2RjdGVybXM6IGRlc2NyaXB0aW9uPC90ZXh0PjwvZz48L2c+PGc+PGc+PHBhdGggc3Ryb2tlPSJub25lIiBmaWxsPSJub25lIi8+PHRleHQgdHJhbnNmb3JtPSJtYXRyaXgoMSAwIDAgMSAtMTY2IC05NTEpIiB0ZXh0LWFuY2hvcj0ic3RhcnQiIHk9IjExMDIiIHg9IjU5NyIgdGV4dC1kZWNvcmF0aW9uPSJ1bmRlZmluZWQiIGZvbnQtd2VpZ2h0PSJub3JtYWwiIGZvbnQtc3R5bGU9Im5vcm1hbCIgZm9udC1zaXplPSIxNnB4IiBmb250LWZhbWlseT0iQXJpYWwiIHN0cm9rZT0ibm9uZSIgZmlsbD0iIzAwMDAwMCI+K2RjdGVybXM6IGlzc3VlZDwvdGV4dD48L2c+PC9nPjxnPjxnPjxwYXRoIHN0cm9rZT0ibm9uZSIgZmlsbD0ibm9uZSIvPjx0ZXh0IHRyYW5zZm9ybT0ibWF0cml4KDEgMCAwIDEgLTE2NiAtOTUxKSIgdGV4dC1hbmNob3I9InN0YXJ0IiB5PSIxMTIwIiB4PSI1OTciIHRleHQtZGVjb3JhdGlvbj0idW5kZWZpbmVkIiBmb250LXdlaWdodD0ibm9ybWFsIiBmb250LXN0eWxlPSJub3JtYWwiIGZvbnQtc2l6ZT0iMTZweCIgZm9udC1mYW1pbHk9IkFyaWFsIiBzdHJva2U9Im5vbmUiIGZpbGw9IiMwMDAwMDAiPitkY3Rlcm1zOiBtb2RpZmllZDwvdGV4dD48L2c+PC9nPjxnPjxnPjxwYXRoIHN0cm9rZT0ibm9uZSIgZmlsbD0ibm9uZSIvPjx0ZXh0IHRyYW5zZm9ybT0ibWF0cml4KDEgMCAwIDEgLTE2NiAtOTUxKSIgdGV4dC1hbmNob3I9InN0YXJ0IiB5PSIxMTM4IiB4PSI1OTciIHRleHQtZGVjb3JhdGlvbj0idW5kZWZpbmVkIiBmb250LXdlaWdodD0ibm9ybWFsIiBmb250LXN0eWxlPSJub3JtYWwiIGZvbnQtc2l6ZT0iMTZweCIgZm9udC1mYW1pbHk9IkFyaWFsIiBzdHJva2U9Im5vbmUiIGZpbGw9IiMwMDAwMDAiPitkY3Rlcm1zOiB0aXRsZTwvdGV4dD48L2c+PC9nPjxnPjxnPjxwYXRoIHN0cm9rZT0ibm9uZSIgZmlsbD0ibm9uZSIvPjx0ZXh0IHRyYW5zZm9ybT0ibWF0cml4KDEgMCAwIDEgLTE2NiAtOTUxKSIgdGV4dC1hbmNob3I9InN0YXJ0IiB5PSIxMTU2IiB4PSI1OTciIHRleHQtZGVjb3JhdGlvbj0idW5kZWZpbmVkIiBmb250LXdlaWdodD0ibm9ybWFsIiBmb250LXN0eWxlPSJub3JtYWwiIGZvbnQtc2l6ZT0iMTZweCIgZm9udC1mYW1pbHk9IkFyaWFsIiBzdHJva2U9Im5vbmUiIGZpbGw9IiMwMDAwMDAiPitmb2FmOiBwcmltYXJ5VG9waWM8L3RleHQ+PC9nPjwvZz48Zz48cmVjdCBmaWxsLW9wYWNpdHk9IjAuMiIgdHJhbnNmb3JtPSJtYXRyaXgoMSAwIDAgMSAtMTY2IC05NTEpIiBoZWlnaHQ9IjcyIiB3aWR0aD0iMTY5LjYwOTM3NSIgeT0iMTEzNiIgeD0iMTEyNyIgc3Ryb2tlPSJub25lIiBmaWxsPSIjQzBDMEMwIi8+PC9nPjxnPjxyZWN0IHRyYW5zZm9ybT0ibWF0cml4KDEgMCAwIDEgLTE2NiAtOTUxKSIgaGVpZ2h0PSI3MiIgd2lkdGg9IjE2OS42MDkzNzUiIHk9IjExMjkiIHg9IjExMjAiIHN0cm9rZT0ibm9uZSIgZmlsbD0iI2ZmZmZmZiIvPjwvZz48Zz48cGF0aCBzdHJva2UtZGFzaGFycmF5PSIiIHN0cm9rZS1taXRlcmxpbWl0PSIxMCIgZD0iTSA5NTQgMTc4IEwgMTEyMy42MDkzNzUgMTc4IEwgMTEyMy42MDkzNzUgMjUwIEwgOTU0IDI1MCBMIDk1NCAxNzggWiBaIiBwYWludC1vcmRlcj0iZmlsbCBzdHJva2UgbWFya2VycyIgc3Ryb2tlPSIjMDAwMDAwIiBmaWxsPSJub25lIi8+PC9nPjxnPjxwYXRoIHN0cm9rZS1kYXNoYXJyYXk9IiIgc3Ryb2tlLW1pdGVybGltaXQ9IjEwIiBkPSJNIDk1NCAyMDYgTCAxMTIzLjYwOTM3NSAyMDYiIHBhaW50LW9yZGVyPSJmaWxsIHN0cm9rZSBtYXJrZXJzIiBzdHJva2U9IiMwMDAwMDAiIGZpbGw9Im5vbmUiLz48L2c+PGc+PGc+PHBhdGggc3Ryb2tlPSJub25lIiBmaWxsPSJub25lIi8+PHRleHQgdHJhbnNmb3JtPSJtYXRyaXgoMSAwIDAgMSAtMTY2IC05NTEpIiB0ZXh0LWFuY2hvcj0ibWlkZGxlIiB5PSIxMTQ0IiB4PSIxMjA1LjMwNDY4NzUiIHRleHQtZGVjb3JhdGlvbj0idW5kZWZpbmVkIiBmb250LXdlaWdodD0iYm9sZCIgZm9udC1zdHlsZT0ibm9ybWFsIiBmb250LXNpemU9IjE2cHgiIGZvbnQtZmFtaWx5PSJBcmlhbCIgc3Ryb2tlPSJub25lIiBmaWxsPSIjMDAwMDAwIj5SZWxhdGlvbnNoaXA8L3RleHQ+PC9nPjwvZz48Zz48Zz48cGF0aCBzdHJva2U9Im5vbmUiIGZpbGw9Im5vbmUiLz48dGV4dCB0cmFuc2Zvcm09Im1hdHJpeCgxIDAgMCAxIC0xNjYgLTk1MSkiIHRleHQtYW5jaG9yPSJzdGFydCIgeT0iMTE3MCIgeD0iMTEyNSIgdGV4dC1kZWNvcmF0aW9uPSJ1bmRlZmluZWQiIGZvbnQtd2VpZ2h0PSJub3JtYWwiIGZvbnQtc3R5bGU9Im5vcm1hbCIgZm9udC1zaXplPSIxNnB4IiBmb250LWZhbWlseT0iQXJpYWwiIHN0cm9rZT0ibm9uZSIgZmlsbD0iIzAwMDAwMCI+K2RjYXQ6IGhhZFJvbGU8L3RleHQ+PC9nPjwvZz48Zz48Zz48cGF0aCBzdHJva2U9Im5vbmUiIGZpbGw9Im5vbmUiLz48dGV4dCB0cmFuc2Zvcm09Im1hdHJpeCgxIDAgMCAxIC0xNjYgLTk1MSkiIHRleHQtYW5jaG9yPSJzdGFydCIgeT0iMTE4OCIgeD0iMTEyNSIgdGV4dC1kZWNvcmF0aW9uPSJ1bmRlZmluZWQiIGZvbnQtd2VpZ2h0PSJub3JtYWwiIGZvbnQtc3R5bGU9Im5vcm1hbCIgZm9udC1zaXplPSIxNnB4IiBmb250LWZhbWlseT0iQXJpYWwiIHN0cm9rZT0ibm9uZSIgZmlsbD0iIzAwMDAwMCI+K2RjdGVybXM6IHJlbGF0aW9uPC90ZXh0PjwvZz48L2c+PGc+PHBhdGggc3Ryb2tlLWRhc2hhcnJheT0iIiBzdHJva2UtbWl0ZXJsaW1pdD0iMTAiIGQ9Ik0gMTIyNiAxMzcgTCAxMDQ2IDEzNyBMIDEwNDYgMTM3IEEgOCA4IDAgMCAwIDEwMzggMTQ1IEwgMTAzOCAxNzgiIHBhaW50LW9yZGVyPSJmaWxsIHN0cm9rZSBtYXJrZXJzIiBzdHJva2U9IiMwMDAwMDAiIGZpbGw9Im5vbmUiLz48L2c+PGc+PHBhdGggc3Ryb2tlLWRhc2hhcnJheT0iIiBzdHJva2UtbWl0ZXJsaW1pdD0iMTAiIGQ9Ik0gMTAzMy43OTA0ODIyNDM5ODQxIDE2Ny44MzczMjUxNDIzNzU5IEwgMTAzOCAxNzggTCAxMDQyLjIwOTUxNzc1NjAxNTkgMTY3LjgzNzMyNTE0MjM3NTkiIHBhaW50LW9yZGVyPSJmaWxsIHN0cm9rZSBtYXJrZXJzIiBzdHJva2U9IiMwMDAwMDAiIGZpbGw9Im5vbmUiLz48L2c+PGc+PHJlY3QgdHJhbnNmb3JtPSJtYXRyaXgoMSAwIDAgMSAtMTY2IC05NTEpIiBoZWlnaHQ9IjEzIiB3aWR0aD0iMTAzLjcxNDM1NTQ2ODc1IiB5PSIxMDk2IiB4PSIxMjQ4IiBzdHJva2U9Im5vbmUiIGZpbGw9IiNmZmZmZmYiLz48L2c+PGc+PGc+PHBhdGggc3Ryb2tlPSJub25lIiBmaWxsPSJub25lIi8+PHRleHQgdHJhbnNmb3JtPSJtYXRyaXgoMSAwIDAgMSAtMTY2IC05NTEpIiB0ZXh0LWFuY2hvcj0ibWlkZGxlIiB5PSIxMTAyLjUiIHg9IjEyOTkuODU3MTc3NzM0Mzc1IiB0ZXh0LWRlY29yYXRpb249InVuZGVmaW5lZCIgZm9udC13ZWlnaHQ9Im5vcm1hbCIgZm9udC1zdHlsZT0ibm9ybWFsIiBmb250LXNpemU9IjEzcHgiIGZvbnQtZmFtaWx5PSJBcmlhbCIgc3Ryb2tlPSJub25lIiBmaWxsPSIjMDAwMDAwIj4rcXVhbGlmaWVkUmVsYXRpb248L3RleHQ+PC9nPjwvZz48Zz48cGF0aCBzdHJva2UtZGFzaGFycmF5PSIiIHN0cm9rZS1taXRlcmxpbWl0PSIxMCIgZD0iTSAxMDM4IDI1MCBMIDEwMzggMjc0IEwgMTAzOCAyNzQgQSA4IDggMCAwIDAgMTA0NiAyODIgTCAxMjI2IDI4MiIgcGFpbnQtb3JkZXI9ImZpbGwgc3Ryb2tlIG1hcmtlcnMiIHN0cm9rZT0iIzAwMDAwMCIgZmlsbD0ibm9uZSIvPjwvZz48Zz48cGF0aCBzdHJva2UtZGFzaGFycmF5PSIiIHN0cm9rZS1taXRlcmxpbWl0PSIxMCIgZD0iTSAxMjE1LjgzNzMyNTE0MjM3NiAyODYuMjA5NTE3NzU2MDE1OSBMIDEyMjYgMjgyIEwgMTIxNS44MzczMjUxNDIzNzYgMjc3Ljc5MDQ4MjI0Mzk4NDEiIHBhaW50LW9yZGVyPSJmaWxsIHN0cm9rZSBtYXJrZXJzIiBzdHJva2U9IiMwMDAwMDAiIGZpbGw9Im5vbmUiLz48L2c+PGc+PHJlY3QgdHJhbnNmb3JtPSJtYXRyaXgoMSAwIDAgMSAtMTY2IC05NTEpIiBoZWlnaHQ9IjEzIiB3aWR0aD0iNTAuMjI5MDAzOTA2MjUiIHk9IjEyMTciIHg9IjEyNzYiIHN0cm9rZT0ibm9uZSIgZmlsbD0iI2ZmZmZmZiIvPjwvZz48Zz48Zz48cGF0aCBzdHJva2U9Im5vbmUiIGZpbGw9Im5vbmUiLz48dGV4dCB0cmFuc2Zvcm09Im1hdHJpeCgxIDAgMCAxIC0xNjYgLTk1MSkiIHRleHQtYW5jaG9yPSJtaWRkbGUiIHk9IjEyMjMuNSIgeD0iMTMwMS4xMTQ1MDE5NTMxMjUiIHRleHQtZGVjb3JhdGlvbj0idW5kZWZpbmVkIiBmb250LXdlaWdodD0ibm9ybWFsIiBmb250LXN0eWxlPSJub3JtYWwiIGZvbnQtc2l6ZT0iMTNweCIgZm9udC1mYW1pbHk9IkFyaWFsIiBzdHJva2U9Im5vbmUiIGZpbGw9IiMwMDAwMDAiPityZWxhdGlvbjwvdGV4dD48L2c+PC9nPjxnPjxwYXRoIHN0cm9rZS1kYXNoYXJyYXk9IiIgc3Ryb2tlLW1pdGVybGltaXQ9IjEwIiBkPSJNIDUxNCAzNDYgTCA1MTQgMzM4IEwgNTE0IDMzOCBBIDggOCAwIDAgMSA1MjIgMzMwIEwgMTIyNiAzMzAiIHBhaW50LW9yZGVyPSJmaWxsIHN0cm9rZSBtYXJrZXJzIiBzdHJva2U9IiMwMEQzNjkiIGZpbGw9Im5vbmUiLz48L2c+PGc+PHBhdGggZD0iTSAxMjA1LjY3NDY1MDI4NDc1MTggMzM4LjQxOTAzNTUxMjAzMiBMIDEyMjYgMzMwIEwgMTIwNS42NzQ2NTAyODQ3NTE2IDMyMS41ODA5NjQ0ODc5NjgiIHBhaW50LW9yZGVyPSJzdHJva2UgZmlsbCBtYXJrZXJzIiBzdHJva2U9Im5vbmUiIGZpbGw9IiNGRkZGRkYiLz48L2c+PGc+PHBhdGggc3Ryb2tlLWRhc2hhcnJheT0iIiBzdHJva2UtbWl0ZXJsaW1pdD0iMTAiIGQ9Ik0gMTIwNS42NzQ2NTAyODQ3NTE4IDMzOC40MTkwMzU1MTIwMzIgTCAxMjI2IDMzMCBMIDEyMDUuNjc0NjUwMjg0NzUxNiAzMjEuNTgwOTY0NDg3OTY4IEwgMTIwNS42NzQ2NTAyODQ3NTE4IDMzOC40MTkwMzU1MTIwMzIiIHBhaW50LW9yZGVyPSJmaWxsIHN0cm9rZSBtYXJrZXJzIiBzdHJva2U9IiMwMEQzNjkiIGZpbGw9Im5vbmUiLz48L2c+PGc+PHJlY3QgZmlsbC1vcGFjaXR5PSIwLjIiIHRyYW5zZm9ybT0ibWF0cml4KDEgMCAwIDEgLTE2NiAtOTUxKSIgaGVpZ2h0PSI0OCIgd2lkdGg9IjE3NiIgeT0iMTMxMSIgeD0iMjM5IiBzdHJva2U9Im5vbmUiIGZpbGw9IiNDMEMwQzAiLz48L2c+PGc+PHJlY3QgdHJhbnNmb3JtPSJtYXRyaXgoMSAwIDAgMSAtMTY2IC05NTEpIiBoZWlnaHQ9IjQ4IiB3aWR0aD0iMTc2IiB5PSIxMzA0IiB4PSIyMzIiIHN0cm9rZT0ibm9uZSIgZmlsbD0iI2ZmZmZmZiIvPjwvZz48Zz48cGF0aCBzdHJva2UtZGFzaGFycmF5PSIiIHN0cm9rZS1taXRlcmxpbWl0PSIxMCIgZD0iTSA2NiAzNTMgTCAyNDIgMzUzIEwgMjQyIDQwMSBMIDY2IDQwMSBMIDY2IDM1MyBaIFoiIHBhaW50LW9yZGVyPSJmaWxsIHN0cm9rZSBtYXJrZXJzIiBzdHJva2U9IiMwMDAwMDAiIGZpbGw9Im5vbmUiLz48L2c+PGc+PHBhdGggc3Ryb2tlLWRhc2hhcnJheT0iIiBzdHJva2UtbWl0ZXJsaW1pdD0iMTAiIGQ9Ik0gNjYgMzgxIEwgMjQyIDM4MSIgcGFpbnQtb3JkZXI9ImZpbGwgc3Ryb2tlIG1hcmtlcnMiIHN0cm9rZT0iIzAwMDAwMCIgZmlsbD0ibm9uZSIvPjwvZz48Zz48Zz48cGF0aCBzdHJva2U9Im5vbmUiIGZpbGw9Im5vbmUiLz48dGV4dCB0cmFuc2Zvcm09Im1hdHJpeCgxIDAgMCAxIC0xNjYgLTk1MSkiIHRleHQtYW5jaG9yPSJtaWRkbGUiIHk9IjEzMTkiIHg9IjMyMC41IiB0ZXh0LWRlY29yYXRpb249InVuZGVmaW5lZCIgZm9udC13ZWlnaHQ9ImJvbGQiIGZvbnQtc3R5bGU9Im5vcm1hbCIgZm9udC1zaXplPSIxNnB4IiBmb250LWZhbWlseT0iQXJpYWwiIHN0cm9rZT0ibm9uZSIgZmlsbD0iIzAwMDAwMCI+RGF0YXNldFNlcmllczwvdGV4dD48L2c+PC9nPjxnPjxwYXRoIHN0cm9rZS1kYXNoYXJyYXk9IiIgc3Ryb2tlLW1pdGVybGltaXQ9IjEwIiBkPSJNIDE3OCA0MDEgTCAxNzggNDQxIEwgMTc4IDQ0MSBBIDggOCAwIDAgMCAxODYgNDQ5IEwgMjkwIDQ0OSIgcGFpbnQtb3JkZXI9ImZpbGwgc3Ryb2tlIG1hcmtlcnMiIHN0cm9rZT0iIzAwRDM2OSIgZmlsbD0ibm9uZSIvPjwvZz48Zz48cGF0aCBkPSJNIDI2OS42NzQ2NTAyODQ3NTE3IDQ1Ny40MTkwMzU1MTIwMzIgTCAyOTAgNDQ5IEwgMjY5LjY3NDY1MDI4NDc1MTcgNDQwLjU4MDk2NDQ4Nzk2OCIgcGFpbnQtb3JkZXI9InN0cm9rZSBmaWxsIG1hcmtlcnMiIHN0cm9rZT0ibm9uZSIgZmlsbD0iI0ZGRkZGRiIvPjwvZz48Zz48cGF0aCBzdHJva2UtZGFzaGFycmF5PSIiIHN0cm9rZS1taXRlcmxpbWl0PSIxMCIgZD0iTSAyNjkuNjc0NjUwMjg0NzUxNyA0NTcuNDE5MDM1NTEyMDMyIEwgMjkwIDQ0OSBMIDI2OS42NzQ2NTAyODQ3NTE3IDQ0MC41ODA5NjQ0ODc5NjggTCAyNjkuNjc0NjUwMjg0NzUxNyA0NTcuNDE5MDM1NTEyMDMyIiBwYWludC1vcmRlcj0iZmlsbCBzdHJva2UgbWFya2VycyIgc3Ryb2tlPSIjMDBEMzY5IiBmaWxsPSJub25lIi8+PC9nPjxnPjxwYXRoIHN0cm9rZS1kYXNoYXJyYXk9IiIgc3Ryb2tlLW1pdGVybGltaXQ9IjEwIiBkPSJNIDEwNjkgMzU0IEwgMTA2OSAzMzggTCAxMDY5IDMzOCBBIDggOCAwIDAgMSAxMDc3IDMzMCBMIDEyMjYgMzMwIiBwYWludC1vcmRlcj0iZmlsbCBzdHJva2UgbWFya2VycyIgc3Ryb2tlPSIjMDBEMzY5IiBmaWxsPSJub25lIi8+PC9nPjxnPjxwYXRoIGQ9Ik0gMTIwNS42NzQ2NTAyODQ3NTE4IDMzOC40MTkwMzU1MTIwMzIgTCAxMjI2IDMzMCBMIDEyMDUuNjc0NjUwMjg0NzUxNiAzMjEuNTgwOTY0NDg3OTY4IiBwYWludC1vcmRlcj0ic3Ryb2tlIGZpbGwgbWFya2VycyIgc3Ryb2tlPSJub25lIiBmaWxsPSIjRkZGRkZGIi8+PC9nPjxnPjxwYXRoIHN0cm9rZS1kYXNoYXJyYXk9IiIgc3Ryb2tlLW1pdGVybGltaXQ9IjEwIiBkPSJNIDEyMDUuNjc0NjUwMjg0NzUxOCAzMzguNDE5MDM1NTEyMDMyIEwgMTIyNiAzMzAgTCAxMjA1LjY3NDY1MDI4NDc1MTYgMzIxLjU4MDk2NDQ4Nzk2OCBMIDEyMDUuNjc0NjUwMjg0NzUxOCAzMzguNDE5MDM1NTEyMDMyIiBwYWludC1vcmRlcj0iZmlsbCBzdHJva2UgbWFya2VycyIgc3Ryb2tlPSIjMDBEMzY5IiBmaWxsPSJub25lIi8+PC9nPjxnPjxwYXRoIHN0cm9rZS1kYXNoYXJyYXk9IiIgc3Ryb2tlLW1pdGVybGltaXQ9IjEwIiBkPSJNIDE3OCA0OTcgTCAxNzggNDU3IEwgMTc4IDQ1NyBBIDggOCAwIDAgMSAxODYgNDQ5IEwgMjkwIDQ0OSIgcGFpbnQtb3JkZXI9ImZpbGwgc3Ryb2tlIG1hcmtlcnMiIHN0cm9rZT0iIzAwRDM2OSIgZmlsbD0ibm9uZSIvPjwvZz48Zz48cGF0aCBkPSJNIDI2OS42NzQ2NTAyODQ3NTE3IDQ1Ny40MTkwMzU1MTIwMzIgTCAyOTAgNDQ5IEwgMjY5LjY3NDY1MDI4NDc1MTcgNDQwLjU4MDk2NDQ4Nzk2OCIgcGFpbnQtb3JkZXI9InN0cm9rZSBmaWxsIG1hcmtlcnMiIHN0cm9rZT0ibm9uZSIgZmlsbD0iI0ZGRkZGRiIvPjwvZz48Zz48cGF0aCBzdHJva2UtZGFzaGFycmF5PSIiIHN0cm9rZS1taXRlcmxpbWl0PSIxMCIgZD0iTSAyNjkuNjc0NjUwMjg0NzUxNyA0NTcuNDE5MDM1NTEyMDMyIEwgMjkwIDQ0OSBMIDI2OS42NzQ2NTAyODQ3NTE3IDQ0MC41ODA5NjQ0ODc5NjggTCAyNjkuNjc0NjUwMjg0NzUxNyA0NTcuNDE5MDM1NTEyMDMyIiBwYWludC1vcmRlcj0iZmlsbCBzdHJva2UgbWFya2VycyIgc3Ryb2tlPSIjMDBEMzY5IiBmaWxsPSJub25lIi8+PC9nPjxnPjxyZWN0IGZpbGwtb3BhY2l0eT0iMC4yIiB0cmFuc2Zvcm09Im1hdHJpeCgxIDAgMCAxIC0xNjYgLTk1MSkiIGhlaWdodD0iNDE0IiB3aWR0aD0iMjQyLjU3MDMxMjUiIHk9IjEzNjgiIHg9IjgzMSIgc3Ryb2tlPSJub25lIiBmaWxsPSIjQzBDMEMwIi8+PC9nPjxnPjxyZWN0IHRyYW5zZm9ybT0ibWF0cml4KDEgMCAwIDEgLTE2NiAtOTUxKSIgaGVpZ2h0PSI0MTQiIHdpZHRoPSIyNDIuNTcwMzEyNSIgeT0iMTM2MSIgeD0iODI0IiBzdHJva2U9Im5vbmUiIGZpbGw9IiNmZmZmZmYiLz48L2c+PGc+PHBhdGggc3Ryb2tlLWRhc2hhcnJheT0iIiBzdHJva2UtbWl0ZXJsaW1pdD0iMTAiIGQ9Ik0gNjU4IDQxMCBMIDkwMC41NzAzMTI1IDQxMCBMIDkwMC41NzAzMTI1IDgyNCBMIDY1OCA4MjQgTCA2NTggNDEwIFogWiIgcGFpbnQtb3JkZXI9ImZpbGwgc3Ryb2tlIG1hcmtlcnMiIHN0cm9rZT0iIzAwMDAwMCIgZmlsbD0ibm9uZSIvPjwvZz48Zz48cGF0aCBzdHJva2UtZGFzaGFycmF5PSIiIHN0cm9rZS1taXRlcmxpbWl0PSIxMCIgZD0iTSA2NTggNDM4IEwgOTAwLjU3MDMxMjUgNDM4IiBwYWludC1vcmRlcj0iZmlsbCBzdHJva2UgbWFya2VycyIgc3Ryb2tlPSIjMDAwMDAwIiBmaWxsPSJub25lIi8+PC9nPjxnPjxnPjxwYXRoIHN0cm9rZT0ibm9uZSIgZmlsbD0ibm9uZSIvPjx0ZXh0IHRyYW5zZm9ybT0ibWF0cml4KDEgMCAwIDEgLTE2NiAtOTUxKSIgdGV4dC1hbmNob3I9Im1pZGRsZSIgeT0iMTM3NiIgeD0iOTQ1Ljc4NTE1NjI1IiB0ZXh0LWRlY29yYXRpb249InVuZGVmaW5lZCIgZm9udC13ZWlnaHQ9ImJvbGQiIGZvbnQtc3R5bGU9Im5vcm1hbCIgZm9udC1zaXplPSIxNnB4IiBmb250LWZhbWlseT0iQXJpYWwiIHN0cm9rZT0ibm9uZSIgZmlsbD0iIzAwMDAwMCI+RGlzdHJpYnV0aW9uPC90ZXh0PjwvZz48L2c+PGc+PGc+PHBhdGggc3Ryb2tlPSJub25lIiBmaWxsPSJub25lIi8+PHRleHQgdHJhbnNmb3JtPSJtYXRyaXgoMSAwIDAgMSAtMTY2IC05NTEpIiB0ZXh0LWFuY2hvcj0ic3RhcnQiIHk9IjE0MDIiIHg9IjgyOSIgdGV4dC1kZWNvcmF0aW9uPSJ1bmRlZmluZWQiIGZvbnQtd2VpZ2h0PSJub3JtYWwiIGZvbnQtc3R5bGU9Im5vcm1hbCIgZm9udC1zaXplPSIxNnB4IiBmb250LWZhbWlseT0iQXJpYWwiIHN0cm9rZT0ibm9uZSIgZmlsbD0iIzAwMDAwMCI+K2RjYXQ6IGFjY2Vzc1NlcnZpY2U8L3RleHQ+PC9nPjwvZz48Zz48Zz48cGF0aCBzdHJva2U9Im5vbmUiIGZpbGw9Im5vbmUiLz48dGV4dCB0cmFuc2Zvcm09Im1hdHJpeCgxIDAgMCAxIC0xNjYgLTk1MSkiIHRleHQtYW5jaG9yPSJzdGFydCIgeT0iMTQyMCIgeD0iODI5IiB0ZXh0LWRlY29yYXRpb249InVuZGVmaW5lZCIgZm9udC13ZWlnaHQ9Im5vcm1hbCIgZm9udC1zdHlsZT0ibm9ybWFsIiBmb250LXNpemU9IjE2cHgiIGZvbnQtZmFtaWx5PSJBcmlhbCIgc3Ryb2tlPSJub25lIiBmaWxsPSIjMDAwMDAwIj4rZGNhdDogYWNjZXNzVVJMPC90ZXh0PjwvZz48L2c+PGc+PGc+PHBhdGggc3Ryb2tlPSJub25lIiBmaWxsPSJub25lIi8+PHRleHQgdHJhbnNmb3JtPSJtYXRyaXgoMSAwIDAgMSAtMTY2IC05NTEpIiB0ZXh0LWFuY2hvcj0ic3RhcnQiIHk9IjE0MzgiIHg9IjgyOSIgdGV4dC1kZWNvcmF0aW9uPSJ1bmRlZmluZWQiIGZvbnQtd2VpZ2h0PSJub3JtYWwiIGZvbnQtc3R5bGU9Im5vcm1hbCIgZm9udC1zaXplPSIxNnB4IiBmb250LWZhbWlseT0iQXJpYWwiIHN0cm9rZT0ibm9uZSIgZmlsbD0iIzAwMDAwMCI+K2RjYXQ6IGJ5dGVTaXplPC90ZXh0PjwvZz48L2c+PGc+PGc+PHBhdGggc3Ryb2tlPSJub25lIiBmaWxsPSJub25lIi8+PHRleHQgdHJhbnNmb3JtPSJtYXRyaXgoMSAwIDAgMSAtMTY2IC05NTEpIiB0ZXh0LWFuY2hvcj0ic3RhcnQiIHk9IjE0NTYiIHg9IjgyOSIgdGV4dC1kZWNvcmF0aW9uPSJ1bmRlZmluZWQiIGZvbnQtd2VpZ2h0PSJub3JtYWwiIGZvbnQtc3R5bGU9Im5vcm1hbCIgZm9udC1zaXplPSIxNnB4IiBmb250LWZhbWlseT0iQXJpYWwiIHN0cm9rZT0ibm9uZSIgZmlsbD0iIzAwMDAwMCI+K2RjYXQ6IGNvbXByZXNzRm9ybWF0PC90ZXh0PjwvZz48L2c+PGc+PGc+PHBhdGggc3Ryb2tlPSJub25lIiBmaWxsPSJub25lIi8+PHRleHQgdHJhbnNmb3JtPSJtYXRyaXgoMSAwIDAgMSAtMTY2IC05NTEpIiB0ZXh0LWFuY2hvcj0ic3RhcnQiIHk9IjE0NzQiIHg9IjgyOSIgdGV4dC1kZWNvcmF0aW9uPSJ1bmRlZmluZWQiIGZvbnQtd2VpZ2h0PSJub3JtYWwiIGZvbnQtc3R5bGU9Im5vcm1hbCIgZm9udC1zaXplPSIxNnB4IiBmb250LWZhbWlseT0iQXJpYWwiIHN0cm9rZT0ibm9uZSIgZmlsbD0iIzAwMDAwMCI+K2RjYXQ6IGRvd25sb2FkVVJMPC90ZXh0PjwvZz48L2c+PGc+PGc+PHBhdGggc3Ryb2tlPSJub25lIiBmaWxsPSJub25lIi8+PHRleHQgdHJhbnNmb3JtPSJtYXRyaXgoMSAwIDAgMSAtMTY2IC05NTEpIiB0ZXh0LWFuY2hvcj0ic3RhcnQiIHk9IjE0OTIiIHg9IjgyOSIgdGV4dC1kZWNvcmF0aW9uPSJ1bmRlZmluZWQiIGZvbnQtd2VpZ2h0PSJub3JtYWwiIGZvbnQtc3R5bGU9Im5vcm1hbCIgZm9udC1zaXplPSIxNnB4IiBmb250LWZhbWlseT0iQXJpYWwiIHN0cm9rZT0ibm9uZSIgZmlsbD0iIzAwMDAwMCI+K2RjYXQ6IG1lZGlhVHlwZTwvdGV4dD48L2c+PC9nPjxnPjxnPjxwYXRoIHN0cm9rZT0ibm9uZSIgZmlsbD0ibm9uZSIvPjx0ZXh0IHRyYW5zZm9ybT0ibWF0cml4KDEgMCAwIDEgLTE2NiAtOTUxKSIgdGV4dC1hbmNob3I9InN0YXJ0IiB5PSIxNTEwIiB4PSI4MjkiIHRleHQtZGVjb3JhdGlvbj0idW5kZWZpbmVkIiBmb250LXdlaWdodD0ibm9ybWFsIiBmb250LXN0eWxlPSJub3JtYWwiIGZvbnQtc2l6ZT0iMTZweCIgZm9udC1mYW1pbHk9IkFyaWFsIiBzdHJva2U9Im5vbmUiIGZpbGw9IiMwMDAwMDAiPitkY2F0OiBwYWNrYWdlRm9ybWF0PC90ZXh0PjwvZz48L2c+PGc+PGc+PHBhdGggc3Ryb2tlPSJub25lIiBmaWxsPSJub25lIi8+PHRleHQgdHJhbnNmb3JtPSJtYXRyaXgoMSAwIDAgMSAtMTY2IC05NTEpIiB0ZXh0LWFuY2hvcj0ic3RhcnQiIHk9IjE1MjgiIHg9IjgyOSIgdGV4dC1kZWNvcmF0aW9uPSJ1bmRlZmluZWQiIGZvbnQtd2VpZ2h0PSJub3JtYWwiIGZvbnQtc3R5bGU9Im5vcm1hbCIgZm9udC1zaXplPSIxNnB4IiBmb250LWZhbWlseT0iQXJpYWwiIHN0cm9rZT0ibm9uZSIgZmlsbD0iIzAwMDAwMCI+K2RjYXQ6IHNwYXRpYWxSZXNvbHV0aW9uSW5NZXRlcnM8L3RleHQ+PC9nPjwvZz48Zz48Zz48cGF0aCBzdHJva2U9Im5vbmUiIGZpbGw9Im5vbmUiLz48dGV4dCB0cmFuc2Zvcm09Im1hdHJpeCgxIDAgMCAxIC0xNjYgLTk1MSkiIHRleHQtYW5jaG9yPSJzdGFydCIgeT0iMTU0NiIgeD0iODI5IiB0ZXh0LWRlY29yYXRpb249InVuZGVmaW5lZCIgZm9udC13ZWlnaHQ9Im5vcm1hbCIgZm9udC1zdHlsZT0ibm9ybWFsIiBmb250LXNpemU9IjE2cHgiIGZvbnQtZmFtaWx5PSJBcmlhbCIgc3Ryb2tlPSJub25lIiBmaWxsPSIjMDAwMDAwIj4rZGNhdDogdGVtcG9yYWxSZXNvbHV0aW9uPC90ZXh0PjwvZz48L2c+PGc+PGc+PHBhdGggc3Ryb2tlPSJub25lIiBmaWxsPSJub25lIi8+PHRleHQgdHJhbnNmb3JtPSJtYXRyaXgoMSAwIDAgMSAtMTY2IC05NTEpIiB0ZXh0LWFuY2hvcj0ic3RhcnQiIHk9IjE1NjQiIHg9IjgyOSIgdGV4dC1kZWNvcmF0aW9uPSJ1bmRlZmluZWQiIGZvbnQtd2VpZ2h0PSJub3JtYWwiIGZvbnQtc3R5bGU9Im5vcm1hbCIgZm9udC1zaXplPSIxNnB4IiBmb250LWZhbWlseT0iQXJpYWwiIHN0cm9rZT0ibm9uZSIgZmlsbD0iIzAwMDAwMCI+K2RjdGVybXM6IGFjY2Vzc1JpZ2h0czwvdGV4dD48L2c+PC9nPjxnPjxnPjxwYXRoIHN0cm9rZT0ibm9uZSIgZmlsbD0ibm9uZSIvPjx0ZXh0IHRyYW5zZm9ybT0ibWF0cml4KDEgMCAwIDEgLTE2NiAtOTUxKSIgdGV4dC1hbmNob3I9InN0YXJ0IiB5PSIxNTgyIiB4PSI4MjkiIHRleHQtZGVjb3JhdGlvbj0idW5kZWZpbmVkIiBmb250LXdlaWdodD0ibm9ybWFsIiBmb250LXN0eWxlPSJub3JtYWwiIGZvbnQtc2l6ZT0iMTZweCIgZm9udC1mYW1pbHk9IkFyaWFsIiBzdHJva2U9Im5vbmUiIGZpbGw9IiMwMDAwMDAiPitkY3Rlcm1zOiBjb25mb3Jtc1RvPC90ZXh0PjwvZz48L2c+PGc+PGc+PHBhdGggc3Ryb2tlPSJub25lIiBmaWxsPSJub25lIi8+PHRleHQgdHJhbnNmb3JtPSJtYXRyaXgoMSAwIDAgMSAtMTY2IC05NTEpIiB0ZXh0LWFuY2hvcj0ic3RhcnQiIHk9IjE2MDAiIHg9IjgyOSIgdGV4dC1kZWNvcmF0aW9uPSJ1bmRlZmluZWQiIGZvbnQtd2VpZ2h0PSJub3JtYWwiIGZvbnQtc3R5bGU9Im5vcm1hbCIgZm9udC1zaXplPSIxNnB4IiBmb250LWZhbWlseT0iQXJpYWwiIHN0cm9rZT0ibm9uZSIgZmlsbD0iIzAwMDAwMCI+K2RjdGVybXM6IGRlc2NyaXB0aW9uPC90ZXh0PjwvZz48L2c+PGc+PGc+PHBhdGggc3Ryb2tlPSJub25lIiBmaWxsPSJub25lIi8+PHRleHQgdHJhbnNmb3JtPSJtYXRyaXgoMSAwIDAgMSAtMTY2IC05NTEpIiB0ZXh0LWFuY2hvcj0ic3RhcnQiIHk9IjE2MTgiIHg9IjgyOSIgdGV4dC1kZWNvcmF0aW9uPSJ1bmRlZmluZWQiIGZvbnQtd2VpZ2h0PSJub3JtYWwiIGZvbnQtc3R5bGU9Im5vcm1hbCIgZm9udC1zaXplPSIxNnB4IiBmb250LWZhbWlseT0iQXJpYWwiIHN0cm9rZT0ibm9uZSIgZmlsbD0iIzAwMDAwMCI+K2RjdGVybXM6IGZvcm1hdDwvdGV4dD48L2c+PC9nPjxnPjxnPjxwYXRoIHN0cm9rZT0ibm9uZSIgZmlsbD0ibm9uZSIvPjx0ZXh0IHRyYW5zZm9ybT0ibWF0cml4KDEgMCAwIDEgLTE2NiAtOTUxKSIgdGV4dC1hbmNob3I9InN0YXJ0IiB5PSIxNjM2IiB4PSI4MjkiIHRleHQtZGVjb3JhdGlvbj0idW5kZWZpbmVkIiBmb250LXdlaWdodD0ibm9ybWFsIiBmb250LXN0eWxlPSJub3JtYWwiIGZvbnQtc2l6ZT0iMTZweCIgZm9udC1mYW1pbHk9IkFyaWFsIiBzdHJva2U9Im5vbmUiIGZpbGw9IiMwMDAwMDAiPitkY3Rlcm1zOiBpc3N1ZWQ8L3RleHQ+PC9nPjwvZz48Zz48Zz48cGF0aCBzdHJva2U9Im5vbmUiIGZpbGw9Im5vbmUiLz48dGV4dCB0cmFuc2Zvcm09Im1hdHJpeCgxIDAgMCAxIC0xNjYgLTk1MSkiIHRleHQtYW5jaG9yPSJzdGFydCIgeT0iMTY1NCIgeD0iODI5IiB0ZXh0LWRlY29yYXRpb249InVuZGVmaW5lZCIgZm9udC13ZWlnaHQ9Im5vcm1hbCIgZm9udC1zdHlsZT0ibm9ybWFsIiBmb250LXNpemU9IjE2cHgiIGZvbnQtZmFtaWx5PSJBcmlhbCIgc3Ryb2tlPSJub25lIiBmaWxsPSIjMDAwMDAwIj4rZGN0ZXJtczogbGljZW5zZTwvdGV4dD48L2c+PC9nPjxnPjxnPjxwYXRoIHN0cm9rZT0ibm9uZSIgZmlsbD0ibm9uZSIvPjx0ZXh0IHRyYW5zZm9ybT0ibWF0cml4KDEgMCAwIDEgLTE2NiAtOTUxKSIgdGV4dC1hbmNob3I9InN0YXJ0IiB5PSIxNjcyIiB4PSI4MjkiIHRleHQtZGVjb3JhdGlvbj0idW5kZWZpbmVkIiBmb250LXdlaWdodD0ibm9ybWFsIiBmb250LXN0eWxlPSJub3JtYWwiIGZvbnQtc2l6ZT0iMTZweCIgZm9udC1mYW1pbHk9IkFyaWFsIiBzdHJva2U9Im5vbmUiIGZpbGw9IiMwMDAwMDAiPitkY3Rlcm1zOiBtb2RpZmllZDwvdGV4dD48L2c+PC9nPjxnPjxnPjxwYXRoIHN0cm9rZT0ibm9uZSIgZmlsbD0ibm9uZSIvPjx0ZXh0IHRyYW5zZm9ybT0ibWF0cml4KDEgMCAwIDEgLTE2NiAtOTUxKSIgdGV4dC1hbmNob3I9InN0YXJ0IiB5PSIxNjkwIiB4PSI4MjkiIHRleHQtZGVjb3JhdGlvbj0idW5kZWZpbmVkIiBmb250LXdlaWdodD0ibm9ybWFsIiBmb250LXN0eWxlPSJub3JtYWwiIGZvbnQtc2l6ZT0iMTZweCIgZm9udC1mYW1pbHk9IkFyaWFsIiBzdHJva2U9Im5vbmUiIGZpbGw9IiMwMDAwMDAiPitkY3Rlcm1zOiByaWdodHM8L3RleHQ+PC9nPjwvZz48Zz48Zz48cGF0aCBzdHJva2U9Im5vbmUiIGZpbGw9Im5vbmUiLz48dGV4dCB0cmFuc2Zvcm09Im1hdHJpeCgxIDAgMCAxIC0xNjYgLTk1MSkiIHRleHQtYW5jaG9yPSJzdGFydCIgeT0iMTcwOCIgeD0iODI5IiB0ZXh0LWRlY29yYXRpb249InVuZGVmaW5lZCIgZm9udC13ZWlnaHQ9Im5vcm1hbCIgZm9udC1zdHlsZT0ibm9ybWFsIiBmb250LXNpemU9IjE2cHgiIGZvbnQtZmFtaWx5PSJBcmlhbCIgc3Ryb2tlPSJub25lIiBmaWxsPSIjMDAwMDAwIj4rZGN0ZXJtczogdGl0bGU8L3RleHQ+PC9nPjwvZz48Zz48Zz48cGF0aCBzdHJva2U9Im5vbmUiIGZpbGw9Im5vbmUiLz48dGV4dCB0cmFuc2Zvcm09Im1hdHJpeCgxIDAgMCAxIC0xNjYgLTk1MSkiIHRleHQtYW5jaG9yPSJzdGFydCIgeT0iMTcyNiIgeD0iODI5IiB0ZXh0LWRlY29yYXRpb249InVuZGVmaW5lZCIgZm9udC13ZWlnaHQ9Im5vcm1hbCIgZm9udC1zdHlsZT0ibm9ybWFsIiBmb250LXNpemU9IjE2cHgiIGZvbnQtZmFtaWx5PSJBcmlhbCIgc3Ryb2tlPSJub25lIiBmaWxsPSIjMDAwMDAwIj4rb2RybDogaGFzUG9saWN5PC90ZXh0PjwvZz48L2c+PGc+PGc+PHBhdGggc3Ryb2tlPSJub25lIiBmaWxsPSJub25lIi8+PHRleHQgdHJhbnNmb3JtPSJtYXRyaXgoMSAwIDAgMSAtMTY2IC05NTEpIiB0ZXh0LWFuY2hvcj0ic3RhcnQiIHk9IjE3NDQiIHg9IjgyOSIgdGV4dC1kZWNvcmF0aW9uPSJ1bmRlZmluZWQiIGZvbnQtd2VpZ2h0PSJub3JtYWwiIGZvbnQtc3R5bGU9Im5vcm1hbCIgZm9udC1zaXplPSIxNnB4IiBmb250LWZhbWlseT0iQXJpYWwiIHN0cm9rZT0ibm9uZSIgZmlsbD0iIzAwMDAwMCI+K3NwZHg6IGNoZWNrc3VtPC90ZXh0PjwvZz48L2c+PGc+PGc+PHBhdGggc3Ryb2tlPSJub25lIiBmaWxsPSJub25lIi8+PHRleHQgdHJhbnNmb3JtPSJtYXRyaXgoMSAwIDAgMSAtMTY2IC05NTEpIiB0ZXh0LWFuY2hvcj0ic3RhcnQiIHk9IjE3NjIiIHg9IjgyOSIgdGV4dC1kZWNvcmF0aW9uPSJ1bmRlZmluZWQiIGZvbnQtd2VpZ2h0PSJub3JtYWwiIGZvbnQtc3R5bGU9Im5vcm1hbCIgZm9udC1zaXplPSIxNnB4IiBmb250LWZhbWlseT0iQXJpYWwiIHN0cm9rZT0ibm9uZSIgZmlsbD0iIzAwMDAwMCI+K2Rwcm9kOiBpc0Rpc3RyaWJ1dGlvbk9mPC90ZXh0PjwvZz48L2c+PGc+PHBhdGggc3Ryb2tlLWRhc2hhcnJheT0iIiBzdHJva2UtbWl0ZXJsaW1pdD0iMTAiIGQ9Ik0gNTk0IDEyMiBMIDEyMjYgMTIyIiBwYWludC1vcmRlcj0iZmlsbCBzdHJva2UgbWFya2VycyIgc3Ryb2tlPSIjMDAwMDAwIiBmaWxsPSJub25lIi8+PC9nPjxnPjxwYXRoIHN0cm9rZS1kYXNoYXJyYXk9IiIgc3Ryb2tlLW1pdGVybGltaXQ9IjEwIiBkPSJNIDEyMTUuODM3MzI1MTQyMzc2IDEyNi4yMDk1MTc3NTYwMTU4OCBMIDEyMjYgMTIyIEwgMTIxNS44MzczMjUxNDIzNzYgMTE3Ljc5MDQ4MjI0Mzk4NDEyIiBwYWludC1vcmRlcj0iZmlsbCBzdHJva2UgbWFya2VycyIgc3Ryb2tlPSIjMDAwMDAwIiBmaWxsPSJub25lIi8+PC9nPjxnPjxyZWN0IHRyYW5zZm9ybT0ibWF0cml4KDEgMCAwIDEgLTE2NiAtOTUxKSIgaGVpZ2h0PSIxMyIgd2lkdGg9IjgxLjI3NTM5MDYyNSIgeT0iMTA1MiIgeD0iMTAzNiIgc3Ryb2tlPSJub25lIiBmaWxsPSIjZmZmZmZmIi8+PC9nPjxnPjxnPjxwYXRoIHN0cm9rZT0ibm9uZSIgZmlsbD0ibm9uZSIvPjx0ZXh0IHRyYW5zZm9ybT0ibWF0cml4KDEgMCAwIDEgLTE2NiAtOTUxKSIgdGV4dC1hbmNob3I9Im1pZGRsZSIgeT0iMTA1OC41IiB4PSIxMDc2LjYzNzY5NTMxMjUiIHRleHQtZGVjb3JhdGlvbj0idW5kZWZpbmVkIiBmb250LXdlaWdodD0ibm9ybWFsIiBmb250LXN0eWxlPSJub3JtYWwiIGZvbnQtc2l6ZT0iMTNweCIgZm9udC1mYW1pbHk9IkFyaWFsIiBzdHJva2U9Im5vbmUiIGZpbGw9IiMwMDAwMDAiPitwcmltYXJ5VG9waWM8L3RleHQ+PC9nPjwvZz48Zz48cGF0aCBzdHJva2UtZGFzaGFycmF5PSIiIHN0cm9rZS1taXRlcmxpbWl0PSIxMCIgZD0iTSA2NiA1ODUgTCA0MiA1ODUgTCA0MiA1ODUgQSA4IDggMCAwIDEgMzQgNTc3IEwgMzQgMTQ2IEwgMzQgMTQ2IEEgOCA4IDAgMCAxIDQyIDEzOCBMIDQyNiAxMzgiIHBhaW50LW9yZGVyPSJmaWxsIHN0cm9rZSBtYXJrZXJzIiBzdHJva2U9IiMwMDAwMDAiIGZpbGw9Im5vbmUiLz48L2c+PGc+PHBhdGggc3Ryb2tlLWRhc2hhcnJheT0iIiBzdHJva2UtbWl0ZXJsaW1pdD0iMTAiIGQ9Ik0gNDE1LjgzNzMyNTE0MjM3NTkgMTQyLjIwOTUxNzc1NjAxNTg4IEwgNDI2IDEzOCBMIDQxNS44MzczMjUxNDIzNzU4IDEzMy43OTA0ODIyNDM5ODQxMiIgcGFpbnQtb3JkZXI9ImZpbGwgc3Ryb2tlIG1hcmtlcnMiIHN0cm9rZT0iIzAwMDAwMCIgZmlsbD0ibm9uZSIvPjwvZz48Zz48cmVjdCB0cmFuc2Zvcm09Im1hdHJpeCgxIDAgMCAxIC0xNjYgLTk1MSkiIGhlaWdodD0iMTMiIHdpZHRoPSI0NC40Mzk5NDE0MDYyNSIgeT0iMTEwMiIgeD0iNTM1IiBzdHJva2U9Im5vbmUiIGZpbGw9IiNmZmZmZmYiLz48L2c+PGc+PGc+PHBhdGggc3Ryb2tlPSJub25lIiBmaWxsPSJub25lIi8+PHRleHQgdHJhbnNmb3JtPSJtYXRyaXgoMSAwIDAgMSAtMTY2IC05NTEpIiB0ZXh0LWFuY2hvcj0ibWlkZGxlIiB5PSIxMTA4LjUiIHg9IjU1Ny4yMTk5NzA3MDMxMjUiIHRleHQtZGVjb3JhdGlvbj0idW5kZWZpbmVkIiBmb250LXdlaWdodD0ibm9ybWFsIiBmb250LXN0eWxlPSJub3JtYWwiIGZvbnQtc2l6ZT0iMTNweCIgZm9udC1mYW1pbHk9IkFyaWFsIiBzdHJva2U9Im5vbmUiIGZpbGw9IiMwMDAwMDAiPityZWNvcmQ8L3RleHQ+PC9nPjwvZz48Zz48cGF0aCBzdHJva2UtZGFzaGFycmF5PSIiIHN0cm9rZS1taXRlcmxpbWl0PSIxMCIgZD0iTSAxMTQgNjU5IEwgMTE0IDcwNSBMIDE5NCA3MDUgTCAxOTQgNjU5IiBwYWludC1vcmRlcj0iZmlsbCBzdHJva2UgbWFya2VycyIgc3Ryb2tlPSIjMDAwMDAwIiBmaWxsPSJub25lIi8+PC9nPjxnPjxwYXRoIHN0cm9rZS1kYXNoYXJyYXk9IiIgc3Ryb2tlLW1pdGVybGltaXQ9IjEwIiBkPSJNIDE5OC4yMDk1MTc3NTYwMTYgNjY5LjE2MjY3NDg1NzYyNDEgTCAxOTQgNjU5IEwgMTg5Ljc5MDQ4MjI0Mzk4NCA2NjkuMTYyNjc0ODU3NjI0MSIgcGFpbnQtb3JkZXI9ImZpbGwgc3Ryb2tlIG1hcmtlcnMiIHN0cm9rZT0iIzAwMDAwMCIgZmlsbD0ibm9uZSIvPjwvZz48Zz48cmVjdCB0cmFuc2Zvcm09Im1hdHJpeCgxIDAgMCAxIC0xNjYgLTk1MSkiIGhlaWdodD0iMTMiIHdpZHRoPSI0OS41MTE3MTg3NSIgeT0iMTYzOSIgeD0iMjg4IiBzdHJva2U9Im5vbmUiIGZpbGw9IiNmZmZmZmYiLz48L2c+PGc+PGc+PHBhdGggc3Ryb2tlPSJub25lIiBmaWxsPSJub25lIi8+PHRleHQgdHJhbnNmb3JtPSJtYXRyaXgoMSAwIDAgMSAtMTY2IC05NTEpIiB0ZXh0LWFuY2hvcj0ibWlkZGxlIiB5PSIxNjQ1LjUiIHg9IjMxMi43NTU4NTkzNzUiIHRleHQtZGVjb3JhdGlvbj0idW5kZWZpbmVkIiBmb250LXdlaWdodD0ibm9ybWFsIiBmb250LXN0eWxlPSJub3JtYWwiIGZvbnQtc2l6ZT0iMTNweCIgZm9udC1mYW1pbHk9IkFyaWFsIiBzdHJva2U9Im5vbmUiIGZpbGw9IiMwMDAwMDAiPitjYXRhbG9nPC90ZXh0PjwvZz48L2c+PGc+PHBhdGggc3Ryb2tlLWRhc2hhcnJheT0iIiBzdHJva2UtbWl0ZXJsaW1pdD0iMTAiIGQ9Ik0gOTAxIDU0NiBMIDEwMTAgNTQ2IEwgMTAxMCA1NDYgQSA4IDggMCAwIDAgMTAxOCA1MzggTCAxMDE4IDQ5OCIgcGFpbnQtb3JkZXI9ImZpbGwgc3Ryb2tlIG1hcmtlcnMiIHN0cm9rZT0iIzAwMDAwMCIgZmlsbD0ibm9uZSIvPjwvZz48Zz48cGF0aCBzdHJva2UtZGFzaGFycmF5PSIiIHN0cm9rZS1taXRlcmxpbWl0PSIxMCIgZD0iTSAxMDIyLjIwOTUxNzc1NjAxNTkgNTA4LjE2MjY3NDg1NzYyNDEgTCAxMDE4IDQ5OCBMIDEwMTMuNzkwNDgyMjQzOTg0MSA1MDguMTYyNjc0ODU3NjI0MSIgcGFpbnQtb3JkZXI9ImZpbGwgc3Ryb2tlIG1hcmtlcnMiIHN0cm9rZT0iIzAwMDAwMCIgZmlsbD0ibm9uZSIvPjwvZz48Zz48cmVjdCB0cmFuc2Zvcm09Im1hdHJpeCgxIDAgMCAxIC0xNjYgLTk1MSkiIGhlaWdodD0iMTMiIHdpZHRoPSI5MS4zOTk5MDIzNDM3NSIgeT0iMTQ4MSIgeD0iMTA4NyIgc3Ryb2tlPSJub25lIiBmaWxsPSIjZmZmZmZmIi8+PC9nPjxnPjxnPjxwYXRoIHN0cm9rZT0ibm9uZSIgZmlsbD0ibm9uZSIvPjx0ZXh0IHRyYW5zZm9ybT0ibWF0cml4KDEgMCAwIDEgLTE2NiAtOTUxKSIgdGV4dC1hbmNob3I9Im1pZGRsZSIgeT0iMTQ4Ny41IiB4PSIxMTMyLjY5OTk1MTE3MTg3NSIgdGV4dC1kZWNvcmF0aW9uPSJ1bmRlZmluZWQiIGZvbnQtd2VpZ2h0PSJub3JtYWwiIGZvbnQtc3R5bGU9Im5vcm1hbCIgZm9udC1zaXplPSIxM3B4IiBmb250LWZhbWlseT0iQXJpYWwiIHN0cm9rZT0ibm9uZSIgZmlsbD0iIzAwMDAwMCI+K2FjY2Vzc1NlcnZpY2U8L3RleHQ+PC9nPjwvZz48Zz48cGF0aCBzdHJva2UtZGFzaGFycmF5PSIiIHN0cm9rZS1taXRlcmxpbWl0PSIxMCIgZD0iTSA5NzAgMzg2IEwgNjA1IDM4NiIgcGFpbnQtb3JkZXI9ImZpbGwgc3Ryb2tlIG1hcmtlcnMiIHN0cm9rZT0iIzAwMDAwMCIgZmlsbD0ibm9uZSIvPjwvZz48Zz48cGF0aCBzdHJva2UtZGFzaGFycmF5PSIiIHN0cm9rZS1taXRlcmxpbWl0PSIxMCIgZD0iTSA2MTUuMTYyNjc0ODU3NjI0MSAzODEuNzkwNDgyMjQzOTg0MSBMIDYwNSAzODYgTCA2MTUuMTYyNjc0ODU3NjI0MSAzOTAuMjA5NTE3NzU2MDE1OSIgcGFpbnQtb3JkZXI9ImZpbGwgc3Ryb2tlIG1hcmtlcnMiIHN0cm9rZT0iIzAwMDAwMCIgZmlsbD0ibm9uZSIvPjwvZz48Zz48cmVjdCB0cmFuc2Zvcm09Im1hdHJpeCgxIDAgMCAxIC0xNjYgLTk1MSkiIGhlaWdodD0iMTMiIHdpZHRoPSI5MC42ODI2MTcxODc1IiB5PSIxMzIwIiB4PSI5NDkiIHN0cm9rZT0ibm9uZSIgZmlsbD0iI2ZmZmZmZiIvPjwvZz48Zz48Zz48cGF0aCBzdHJva2U9Im5vbmUiIGZpbGw9Im5vbmUiLz48dGV4dCB0cmFuc2Zvcm09Im1hdHJpeCgxIDAgMCAxIC0xNjYgLTk1MSkiIHRleHQtYW5jaG9yPSJtaWRkbGUiIHk9IjEzMjYuNSIgeD0iOTk0LjM0MTMwODU5Mzc1IiB0ZXh0LWRlY29yYXRpb249InVuZGVmaW5lZCIgZm9udC13ZWlnaHQ9Im5vcm1hbCIgZm9udC1zdHlsZT0ibm9ybWFsIiBmb250LXNpemU9IjEzcHgiIGZvbnQtZmFtaWx5PSJBcmlhbCIgc3Ryb2tlPSJub25lIiBmaWxsPSIjMDAwMDAwIj4rc2VydmVzRGF0YXNldDwvdGV4dD48L2c+PC9nPjxnPjxwYXRoIHN0cm9rZS1kYXNoYXJyYXk9IiIgc3Ryb2tlLW1pdGVybGltaXQ9IjEwIiBkPSJNIDQ5OCAzNDYgTCA0OTggMjU4IEwgNDk4IDI1OCBBIDggOCAwIDAgMCA0OTAgMjUwIEwgMTg2IDI1MCBMIDE4NiAyNTAgQSA4IDggMCAwIDAgMTc4IDI1OCBMIDE3OCAzNTMiIHBhaW50LW9yZGVyPSJmaWxsIHN0cm9rZSBtYXJrZXJzIiBzdHJva2U9IiMwMDAwMDAiIGZpbGw9Im5vbmUiLz48L2c+PGc+PHBhdGggc3Ryb2tlLWRhc2hhcnJheT0iIiBzdHJva2UtbWl0ZXJsaW1pdD0iMTAiIGQ9Ik0gMTczLjc5MDQ4MjI0Mzk4NCAzNDIuODM3MzI1MTQyMzc1OSBMIDE3OCAzNTMgTCAxODIuMjA5NTE3NzU2MDE2IDM0Mi44MzczMjUxNDIzNzU5IiBwYWludC1vcmRlcj0iZmlsbCBzdHJva2UgbWFya2VycyIgc3Ryb2tlPSIjMDAwMDAwIiBmaWxsPSJub25lIi8+PC9nPjxnPjxyZWN0IHRyYW5zZm9ybT0ibWF0cml4KDEgMCAwIDEgLTE2NiAtOTUxKSIgaGVpZ2h0PSIxMyIgd2lkdGg9IjU0LjU1ODEwNTQ2ODc1IiB5PSIxMTg1IiB4PSI0ODAiIHN0cm9rZT0ibm9uZSIgZmlsbD0iI2ZmZmZmZiIvPjwvZz48Zz48Zz48cGF0aCBzdHJva2U9Im5vbmUiIGZpbGw9Im5vbmUiLz48dGV4dCB0cmFuc2Zvcm09Im1hdHJpeCgxIDAgMCAxIC0xNjYgLTk1MSkiIHRleHQtYW5jaG9yPSJtaWRkbGUiIHk9IjExOTEuNSIgeD0iNTA3LjI3OTA1MjczNDM3NSIgdGV4dC1kZWNvcmF0aW9uPSJ1bmRlZmluZWQiIGZvbnQtd2VpZ2h0PSJub3JtYWwiIGZvbnQtc3R5bGU9Im5vcm1hbCIgZm9udC1zaXplPSIxM3B4IiBmb250LWZhbWlseT0iQXJpYWwiIHN0cm9rZT0ibm9uZSIgZmlsbD0iIzAwMDAwMCI+K2luU2VyaWVzPC90ZXh0PjwvZz48L2c+PGc+PHBhdGggc3Ryb2tlLWRhc2hhcnJheT0iIiBzdHJva2UtbWl0ZXJsaW1pdD0iMTAiIGQ9Ik0gNTMwIDU0NCBMIDUzMCA1OTQgTCA1MzAgNTk0IEEgOCA4IDAgMCAwIDUzOCA2MDIgTCA2NTggNjAyIiBwYWludC1vcmRlcj0iZmlsbCBzdHJva2UgbWFya2VycyIgc3Ryb2tlPSIjMDAwMDAwIiBmaWxsPSJub25lIi8+PC9nPjxnPjxwYXRoIHN0cm9rZS1kYXNoYXJyYXk9IiIgc3Ryb2tlLW1pdGVybGltaXQ9IjEwIiBkPSJNIDY0Ny44MzczMjUxNDIzNzU5IDYwNi4yMDk1MTc3NTYwMTU5IEwgNjU4IDYwMiBMIDY0Ny44MzczMjUxNDIzNzU4IDU5Ny43OTA0ODIyNDM5ODQxIiBwYWludC1vcmRlcj0iZmlsbCBzdHJva2UgbWFya2VycyIgc3Ryb2tlPSIjMDAwMDAwIiBmaWxsPSJub25lIi8+PC9nPjxnPjxyZWN0IHRyYW5zZm9ybT0ibWF0cml4KDEgMCAwIDEgLTE2NiAtOTUxKSIgaGVpZ2h0PSIxMyIgd2lkdGg9IjcwLjQ1ODk4NDM3NSIgeT0iMTUzNyIgeD0iNzA0IiBzdHJva2U9Im5vbmUiIGZpbGw9IiNmZmZmZmYiLz48L2c+PGc+PGc+PHBhdGggc3Ryb2tlPSJub25lIiBmaWxsPSJub25lIi8+PHRleHQgdHJhbnNmb3JtPSJtYXRyaXgoMSAwIDAgMSAtMTY2IC05NTEpIiB0ZXh0LWFuY2hvcj0ibWlkZGxlIiB5PSIxNTQzLjUiIHg9IjczOS4yMjk0OTIxODc1IiB0ZXh0LWRlY29yYXRpb249InVuZGVmaW5lZCIgZm9udC13ZWlnaHQ9Im5vcm1hbCIgZm9udC1zdHlsZT0ibm9ybWFsIiBmb250LXNpemU9IjEzcHgiIGZvbnQtZmFtaWx5PSJBcmlhbCIgc3Ryb2tlPSJub25lIiBmaWxsPSIjMDAwMDAwIj4rZGlzdHJpYnV0aW9uPC90ZXh0PjwvZz48L2c+PGc+PHBhdGggc3Ryb2tlLWRhc2hhcnJheT0iIiBzdHJva2UtbWl0ZXJsaW1pdD0iMTAiIGQ9Ik0gMTE3OCA5NDYgTCAxMTA2IDk0NiBMIDExMDYgOTQ2IEEgOCA4IDAgMCAxIDEwOTggOTM4IEwgMTA5OCA0OTgiIHBhaW50LW9yZGVyPSJmaWxsIHN0cm9rZSBtYXJrZXJzIiBzdHJva2U9IiMwMDQ0Q0MiIGZpbGw9Im5vbmUiLz48L2c+PGc+PHBhdGggc3Ryb2tlLWRhc2hhcnJheT0iIiBzdHJva2UtbWl0ZXJsaW1pdD0iMTAiIGQ9Ik0gMTEwMi4yMDk1MTc3NTYwMTU5IDUwOC4xNjI2NzQ4NTc2MjQxIEwgMTA5OCA0OTggTCAxMDkzLjc5MDQ4MjI0Mzk4NDEgNTA4LjE2MjY3NDg1NzYyNDEiIHBhaW50LW9yZGVyPSJmaWxsIHN0cm9rZSBtYXJrZXJzIiBzdHJva2U9IiMwMDQ0Q0MiIGZpbGw9Im5vbmUiLz48L2c+PGc+PHJlY3QgdHJhbnNmb3JtPSJtYXRyaXgoMSAwIDAgMSAtMTY2IC05NTEpIiBoZWlnaHQ9IjEzIiB3aWR0aD0iNjcuNTc3MTQ4NDM3NSIgeT0iMTg4MSIgeD0iMTI3MiIgc3Ryb2tlPSJub25lIiBmaWxsPSIjRkZGRkZGIi8+PC9nPjxnPjxnPjxwYXRoIHN0cm9rZT0ibm9uZSIgZmlsbD0ibm9uZSIvPjx0ZXh0IHRyYW5zZm9ybT0ibWF0cml4KDEgMCAwIDEgLTE2NiAtOTUxKSIgdGV4dC1hbmNob3I9Im1pZGRsZSIgeT0iMTg4Ny41IiB4PSIxMzA1Ljc4ODU3NDIxODc1IiB0ZXh0LWRlY29yYXRpb249InVuZGVmaW5lZCIgZm9udC13ZWlnaHQ9Im5vcm1hbCIgZm9udC1zdHlsZT0ibm9ybWFsIiBmb250LXNpemU9IjEzcHgiIGZvbnQtZmFtaWx5PSJBcmlhbCIgc3Ryb2tlPSJub25lIiBmaWxsPSIjMDAwMDAwIj4raW5wdXRQb3J0PC90ZXh0PjwvZz48L2c+PGc+PHBhdGggc3Ryb2tlLWRhc2hhcnJheT0iIiBzdHJva2UtbWl0ZXJsaW1pdD0iMTAiIGQ9Ik0gMTE3OCA5NzggTCAxMDY2IDk3OCBMIDEwNjYgOTc4IEEgOCA4IDAgMCAxIDEwNTggOTcwIEwgMTA1OCA0OTgiIHBhaW50LW9yZGVyPSJmaWxsIHN0cm9rZSBtYXJrZXJzIiBzdHJva2U9IiMwMDQ0Q0MiIGZpbGw9Im5vbmUiLz48L2c+PGc+PHBhdGggc3Ryb2tlLWRhc2hhcnJheT0iIiBzdHJva2UtbWl0ZXJsaW1pdD0iMTAiIGQ9Ik0gMTA2Mi4yMDk1MTc3NTYwMTU5IDUwOC4xNjI2NzQ4NTc2MjQxIEwgMTA1OCA0OTggTCAxMDUzLjc5MDQ4MjI0Mzk4NDEgNTA4LjE2MjY3NDg1NzYyNDEiIHBhaW50LW9yZGVyPSJmaWxsIHN0cm9rZSBtYXJrZXJzIiBzdHJva2U9IiMwMDQ0Q0MiIGZpbGw9Im5vbmUiLz48L2c+PGc+PHJlY3QgdHJhbnNmb3JtPSJtYXRyaXgoMSAwIDAgMSAtMTY2IC05NTEpIiBoZWlnaHQ9IjEzIiB3aWR0aD0iNjcuNTc3MTQ4NDM3NSIgeT0iMTkxMyIgeD0iMTIzMiIgc3Ryb2tlPSJub25lIiBmaWxsPSIjRkZGRkZGIi8+PC9nPjxnPjxnPjxwYXRoIHN0cm9rZT0ibm9uZSIgZmlsbD0ibm9uZSIvPjx0ZXh0IHRyYW5zZm9ybT0ibWF0cml4KDEgMCAwIDEgLTE2NiAtOTUxKSIgdGV4dC1hbmNob3I9Im1pZGRsZSIgeT0iMTkxOS41IiB4PSIxMjY1Ljc4ODU3NDIxODc1IiB0ZXh0LWRlY29yYXRpb249InVuZGVmaW5lZCIgZm9udC13ZWlnaHQ9Im5vcm1hbCIgZm9udC1zdHlsZT0ibm9ybWFsIiBmb250LXNpemU9IjEzcHgiIGZvbnQtZmFtaWx5PSJBcmlhbCIgc3Ryb2tlPSJub25lIiBmaWxsPSIjMDAwMDAwIj4rb3V0cHV0UG9ydDwvdGV4dD48L2c+PC9nPjxnPjxwYXRoIHN0cm9rZS1kYXNoYXJyYXk9IiIgc3Ryb2tlLW1pdGVybGltaXQ9IjEwIiBkPSJNIDExNzggMTA1MCBMIDQ2NiAxMDUwIEwgNDY2IDEwNTAgQSA4IDggMCAwIDEgNDU4IDEwNDIgTCA0NTggNTQ0IiBwYWludC1vcmRlcj0iZmlsbCBzdHJva2UgbWFya2VycyIgc3Ryb2tlPSIjMDA0NENDIiBmaWxsPSJub25lIi8+PC9nPjxnPjxwYXRoIHN0cm9rZS1kYXNoYXJyYXk9IiIgc3Ryb2tlLW1pdGVybGltaXQ9IjEwIiBkPSJNIDQ2Mi4yMDk1MTc3NTYwMTYgNTU0LjE2MjY3NDg1NzYyNDEgTCA0NTggNTQ0IEwgNDUzLjc5MDQ4MjI0Mzk4NCA1NTQuMTYyNjc0ODU3NjI0MSIgcGFpbnQtb3JkZXI9ImZpbGwgc3Ryb2tlIG1hcmtlcnMiIHN0cm9rZT0iIzAwNDRDQyIgZmlsbD0ibm9uZSIvPjwvZz48Zz48cmVjdCB0cmFuc2Zvcm09Im1hdHJpeCgxIDAgMCAxIC0xNjYgLTk1MSkiIGhlaWdodD0iMTMiIHdpZHRoPSI4MC41ODM0OTYwOTM3NSIgeT0iMTk4NSIgeD0iNjMyIiBzdHJva2U9Im5vbmUiIGZpbGw9IiNGRkZGRkYiLz48L2c+PGc+PGc+PHBhdGggc3Ryb2tlPSJub25lIiBmaWxsPSJub25lIi8+PHRleHQgdHJhbnNmb3JtPSJtYXRyaXgoMSAwIDAgMSAtMTY2IC05NTEpIiB0ZXh0LWFuY2hvcj0ibWlkZGxlIiB5PSIxOTkxLjUiIHg9IjY3Mi4yOTE3NDgwNDY4NzUiIHRleHQtZGVjb3JhdGlvbj0idW5kZWZpbmVkIiBmb250LXdlaWdodD0ibm9ybWFsIiBmb250LXN0eWxlPSJub3JtYWwiIGZvbnQtc2l6ZT0iMTNweCIgZm9udC1mYW1pbHk9IkFyaWFsIiBzdHJva2U9Im5vbmUiIGZpbGw9IiMwMDAwMDAiPitpbnB1dERhdGFzZXQ8L3RleHQ+PC9nPjwvZz48Zz48cGF0aCBzdHJva2UtZGFzaGFycmF5PSIiIHN0cm9rZS1taXRlcmxpbWl0PSIxMCIgZD0iTSAxMTc4IDEwOTggTCA0MzQgMTA5OCBMIDQzNCAxMDk4IEEgOCA4IDAgMCAxIDQyNiAxMDkwIEwgNDI2IDU0NCIgcGFpbnQtb3JkZXI9ImZpbGwgc3Ryb2tlIG1hcmtlcnMiIHN0cm9rZT0iIzAwNDRDQyIgZmlsbD0ibm9uZSIvPjwvZz48Zz48cGF0aCBzdHJva2UtZGFzaGFycmF5PSIiIHN0cm9rZS1taXRlcmxpbWl0PSIxMCIgZD0iTSA0MzAuMjA5NTE3NzU2MDE2IDU1NC4xNjI2NzQ4NTc2MjQxIEwgNDI2IDU0NCBMIDQyMS43OTA0ODIyNDM5ODQgNTU0LjE2MjY3NDg1NzYyNDEiIHBhaW50LW9yZGVyPSJmaWxsIHN0cm9rZSBtYXJrZXJzIiBzdHJva2U9IiMwMDQ0Q0MiIGZpbGw9Im5vbmUiLz48L2c+PGc+PHJlY3QgdHJhbnNmb3JtPSJtYXRyaXgoMSAwIDAgMSAtMTY2IC05NTEpIiBoZWlnaHQ9IjEzIiB3aWR0aD0iODguNTM3MTA5Mzc1IiB5PSIyMDMzIiB4PSI2MDAiIHN0cm9rZT0ibm9uZSIgZmlsbD0iI0ZGRkZGRiIvPjwvZz48Zz48Zz48cGF0aCBzdHJva2U9Im5vbmUiIGZpbGw9Im5vbmUiLz48dGV4dCB0cmFuc2Zvcm09Im1hdHJpeCgxIDAgMCAxIC0xNjYgLTk1MSkiIHRleHQtYW5jaG9yPSJtaWRkbGUiIHk9IjIwMzkuNSIgeD0iNjQ0LjI2ODU1NDY4NzUiIHRleHQtZGVjb3JhdGlvbj0idW5kZWZpbmVkIiBmb250LXdlaWdodD0ibm9ybWFsIiBmb250LXN0eWxlPSJub3JtYWwiIGZvbnQtc2l6ZT0iMTNweCIgZm9udC1mYW1pbHk9IkFyaWFsIiBzdHJva2U9Im5vbmUiIGZpbGw9IiMwMDAwMDAiPitvdXRwdXREYXRhc2V0PC90ZXh0PjwvZz48L2c+PGc+PHBhdGggc3Ryb2tlLWRhc2hhcnJheT0iIiBzdHJva2UtbWl0ZXJsaW1pdD0iMTAiIGQ9Ik0gMTM0MiA5MjIgTCAxMzQyIDczNiIgcGFpbnQtb3JkZXI9ImZpbGwgc3Ryb2tlIG1hcmtlcnMiIHN0cm9rZT0iIzAwRDM2OSIgZmlsbD0ibm9uZSIvPjwvZz48Zz48cGF0aCBkPSJNIDEzNTAuNDE5MDM1NTEyMDMyIDc1Ni4zMjUzNDk3MTUyNDgyIEwgMTM0MiA3MzYgTCAxMzMzLjU4MDk2NDQ4Nzk2OCA3NTYuMzI1MzQ5NzE1MjQ4MiIgcGFpbnQtb3JkZXI9InN0cm9rZSBmaWxsIG1hcmtlcnMiIHN0cm9rZT0ibm9uZSIgZmlsbD0iI0ZGRkZGRiIvPjwvZz48Zz48cGF0aCBzdHJva2UtZGFzaGFycmF5PSIiIHN0cm9rZS1taXRlcmxpbWl0PSIxMCIgZD0iTSAxMzUwLjQxOTAzNTUxMjAzMiA3NTYuMzI1MzQ5NzE1MjQ4MiBMIDEzNDIgNzM2IEwgMTMzMy41ODA5NjQ0ODc5NjggNzU2LjMyNTM0OTcxNTI0ODIgTCAxMzUwLjQxOTAzNTUxMjAzMiA3NTYuMzI1MzQ5NzE1MjQ4MiIgcGFpbnQtb3JkZXI9ImZpbGwgc3Ryb2tlIG1hcmtlcnMiIHN0cm9rZT0iIzAwRDM2OSIgZmlsbD0ibm9uZSIvPjwvZz48Zz48cGF0aCBzdHJva2UtZGFzaGFycmF5PSIiIHN0cm9rZS1taXRlcmxpbWl0PSIxMCIgZD0iTSA2NTggNjQyIEwgNTA2IDY0MiBMIDUwNiA2NDIgQSA4IDggMCAwIDEgNDk4IDYzNCBMIDQ5OCA1NDQiIHBhaW50LW9yZGVyPSJmaWxsIHN0cm9rZSBtYXJrZXJzIiBzdHJva2U9IiMwMDQ0Q0MiIGZpbGw9Im5vbmUiLz48L2c+PGc+PHBhdGggc3Ryb2tlLWRhc2hhcnJheT0iIiBzdHJva2UtbWl0ZXJsaW1pdD0iMTAiIGQ9Ik0gNTAyLjIwOTUxNzc1NjAxNiA1NTQuMTYyNjc0ODU3NjI0MSBMIDQ5OCA1NDQgTCA0OTMuNzkwNDgyMjQzOTg0IDU1NC4xNjI2NzQ4NTc2MjQxIiBwYWludC1vcmRlcj0iZmlsbCBzdHJva2UgbWFya2VycyIgc3Ryb2tlPSIjMDA0NENDIiBmaWxsPSJub25lIi8+PC9nPjxnPjxyZWN0IHRyYW5zZm9ybT0ibWF0cml4KDEgMCAwIDEgLTE2NiAtOTUxKSIgaGVpZ2h0PSIxMyIgd2lkdGg9Ijk1LjcyOTAwMzkwNjI1IiB5PSIxNTc1IiB4PSI2ODAiIHN0cm9rZT0ibm9uZSIgZmlsbD0iI2ZmZmZmZiIvPjwvZz48Zz48Zz48cGF0aCBzdHJva2U9Im5vbmUiIGZpbGw9Im5vbmUiLz48dGV4dCB0cmFuc2Zvcm09Im1hdHJpeCgxIDAgMCAxIC0xNjYgLTk1MSkiIHRleHQtYW5jaG9yPSJtaWRkbGUiIHk9IjE1ODEuNSIgeD0iNzI3Ljg2NDUwMTk1MzEyNSIgdGV4dC1kZWNvcmF0aW9uPSJ1bmRlZmluZWQiIGZvbnQtd2VpZ2h0PSJub3JtYWwiIGZvbnQtc3R5bGU9Im5vcm1hbCIgZm9udC1zaXplPSIxM3B4IiBmb250LWZhbWlseT0iQXJpYWwiIHN0cm9rZT0ibm9uZSIgZmlsbD0iIzAwMDAwMCI+K2lzRGlzdHJpYnV0aW9uT2Y8L3RleHQ+PC9nPjwvZz48Zz48cGF0aCBzdHJva2UtZGFzaGFycmF5PSIiIHN0cm9rZS1taXRlcmxpbWl0PSIxMCIgZD0iTSAxMDQyIDQ5OCBMIDEwNDIgNTcwIEwgMTA0MiA1NzAgQSA4IDggMCAwIDEgMTAzNCA1NzggTCA5MDEgNTc4IiBwYWludC1vcmRlcj0iZmlsbCBzdHJva2UgbWFya2VycyIgc3Ryb2tlPSIjMDA0NENDIiBmaWxsPSJub25lIi8+PC9nPjxnPjxwYXRoIHN0cm9rZS1kYXNoYXJyYXk9IiIgc3Ryb2tlLW1pdGVybGltaXQ9IjEwIiBkPSJNIDkxMS4xNjI2NzQ4NTc2MjQxIDU3My43OTA0ODIyNDM5ODQxIEwgOTAxIDU3OCBMIDkxMS4xNjI2NzQ4NTc2MjQxIDU4Mi4yMDk1MTc3NTYwMTU5IiBwYWludC1vcmRlcj0iZmlsbCBzdHJva2UgbWFya2VycyIgc3Ryb2tlPSIjMDA0NENDIiBmaWxsPSJub25lIi8+PC9nPjxnPjxyZWN0IHRyYW5zZm9ybT0ibWF0cml4KDEgMCAwIDEgLTE2NiAtOTUxKSIgaGVpZ2h0PSIxMyIgd2lkdGg9IjExNS45NTI2MzY3MTg3NSIgeT0iMTUxMiIgeD0iMTA4NiIgc3Ryb2tlPSJub25lIiBmaWxsPSIjZmZmZmZmIi8+PC9nPjxnPjxnPjxwYXRoIHN0cm9rZT0ibm9uZSIgZmlsbD0ibm9uZSIvPjx0ZXh0IHRyYW5zZm9ybT0ibWF0cml4KDEgMCAwIDEgLTE2NiAtOTUxKSIgdGV4dC1hbmNob3I9Im1pZGRsZSIgeT0iMTUxOC41IiB4PSIxMTQzLjk3NjMxODM1OTM3NSIgdGV4dC1kZWNvcmF0aW9uPSJ1bmRlZmluZWQiIGZvbnQtd2VpZ2h0PSJub3JtYWwiIGZvbnQtc3R5bGU9Im5vcm1hbCIgZm9udC1zaXplPSIxM3B4IiBmb250LWZhbWlseT0iQXJpYWwiIHN0cm9rZT0ibm9uZSIgZmlsbD0iIzAwMDAwMCI+K2lzQWNjZXNzU2VydmljZU9mPC90ZXh0PjwvZz48L2c+PC9nPjwvc3ZnPg==;" vertex="1" parent="1">
          <mxGeometry width="1200" height="948" as="geometry" />
        </mxCell>
      </root>
    </mxGraphModel>
  </diagram>
</mxfile>
